<?xml version="1.0" encoding="utf-8"?>
<!-- Generator: Adobe Illustrator 26.2.0, SVG Export Plug-In . SVG Version: 6.00 Build 0)  -->
<svg version="1.1" id="Layer_1" xmlns="http://www.w3.org/2000/svg" xmlns:xlink="http://www.w3.org/1999/xlink" x="0px" y="0px"
	 viewBox="0 0 1920 3855" style="enable-background:new 0 0 1920 3855;" xml:space="preserve">
<style type="text/css">
	.st0{fill:none;stroke:#FFD773;stroke-width:15;stroke-linecap:round;stroke-miterlimit:10;stroke-dasharray:25,50;}
</style>
<path class="st0" d="M1509.8,7.5c0,0,149.4,356.8,159.2,487.5c9.8,129.7-62.8,386.2-109.1,503.4
	c-54.2,137.3-223.6,366.6-290.2,495.3c-29,56.1-79.9,176.1-91.6,241c-8.5,47,0,192.8,0,192.8"/>
<path class="st0" d="M1873.7,7.5c0,0-18,300.2-25.2,391.8c-6,76.9-20,214.1-27.9,269.8c-12.3,86.4-40.5,199.8-51.9,298
	c-5.9,50.7-14.7,185.1-17.8,257.7c-3.3,80.2-5.1,264.4-2.7,348.3c3,108.7,19.8,271.9,27.3,354.4"/>
<path class="st0" d="M1175.8,7.5c0,0-11.4,214.7,37.2,366.6c47,146.8,135.5,252.3,186.1,328.9c36.6,55.3,115.6,123.3,143,226.1
	c31.9,119.5,35.9,387,21.6,513.9c-14.8,130.9-103.1,367.5-145,484.5"/>
<path class="st0" d="M981.3,7.5c0,0-158.9,198.7-204,317.1c-33.8,88.7-37.8,284-53.5,378.2c-16,96.3-42.7,222.7-117.1,371.1
	c-79,157.7-240.6,259-316.1,349.9c-41,49.4-97,127.2-97,242.1c0,111.3,88.6,261.6,88.6,261.6"/>
<path class="st0" d="M586.9,7.5c0,0-152.6,307.2-177.2,439c-18,96.5-13.9,349.7,6.6,445.5c17.7,82.4,108.1,223.2,156.2,285.7
	c55.5,72.2,187.6,176.1,252.9,235.4c35.1,31.8,104.5,102.2,124.4,149.4c34.5,81.8,35.1,273.9,27.7,365.1"/>
<path class="st0" d="M28.4,7.5c0,0,18.8,118.6,37.2,155.9c39.3,79.9,174.1,223.7,204.4,305.5c29.5,79.6,51.2,217.2,26,297.6
	c-20.8,66.3-181.9,220.2-171.5,300.2c14.9,114.3,211.5,253.1,234.6,289.6c43.8,69.4,282.2,191.7,312.4,247.1
	c41.2,75.5,0,324.1,0,324.1"/>
<path class="st0" d="M1509.8,3847.5c0,0,149.4-356.8,159.2-487.5c9.8-129.7-62.8-386.2-109.1-503.4
	c-54.2-137.3-223.6-366.6-290.2-495.4c-29-56.1-79.9-176.1-91.6-241c-8.5-47.1,0-192.8,0-192.8"/>
<path class="st0" d="M1873.7,3847.5c0,0-18-300.2-25.2-391.8c-6-76.9-20-214.1-27.9-269.8c-12.3-86.4-40.5-199.8-51.9-298
	c-5.9-50.7-14.7-185.1-17.8-257.7c-3.3-80.2-5.1-264.4-2.7-348.3c3-108.7,19.8-271.9,27.3-354.4"/>
<path class="st0" d="M1175.8,3847.5c0,0-11.4-214.7,37.2-366.6c47-146.8,135.5-252.3,186.1-328.9c36.6-55.3,115.6-123.3,143-226.1
	c31.9-119.5,35.9-387,21.6-513.9c-14.8-130.9-103.1-367.5-145-484.5"/>
<path class="st0" d="M981.3,3847.5c0,0-158.9-198.7-204-317.1c-33.8-88.7-37.8-284-53.5-378.2c-16-96.3-42.7-222.7-117.1-371.1
	c-79-157.6-240.6-259-316.1-349.9c-41-49.4-97-127.2-97-242.1c0-111.3,88.6-261.6,88.6-261.6"/>
<path class="st0" d="M586.9,3847.5c0,0-152.6-307.2-177.2-439c-18-96.5-13.9-349.7,6.6-445.5c17.7-82.4,108.1-223.2,156.2-285.7
	c55.5-72.2,187.6-176.1,252.9-235.4c35.1-31.9,104.5-102.3,124.4-149.4c34.5-81.8,35.1-273.9,27.7-365.1"/>
<path class="st0" d="M28.4,3847.5c0,0,18.8-118.6,37.2-155.9c39.3-79.9,174.1-223.7,204.4-305.5c29.5-79.6,51.2-217.2,26-297.6
	c-20.8-66.3-181.9-220.1-171.5-300.2c14.9-114.2,211.5-253.1,234.6-289.6c43.8-69.4,282.2-191.7,312.4-247.1
	c41.2-75.5,0-324.1,0-324.1"/>
</svg>
