<?xml version="1.0" encoding="UTF-8"?><svg id="a" xmlns="http://www.w3.org/2000/svg" viewBox="0 0 500 500"><defs><style>.b{stroke:#ffd363;stroke-width:30px;}.b,.c,.d{fill:none;stroke-linecap:round;stroke-miterlimit:10;}.e{fill:#ffd773;}.c{stroke:#1d1d1b;stroke-dasharray:0 0 12 25;stroke-width:4px;}.d{stroke:#ed7585;stroke-width:10px;}</style></defs><rect class="e" y="0" width="499.39" height="499.39"/><path class="c" d="M819.83,469.83s-118.15,60.73-161.46,64.73c-42.94,3.97-127.9-25.53-166.71-44.34-45.46-22.03-121.41-90.86-164.05-117.94-18.59-11.8-58.31-32.47-79.81-37.24-15.58-3.46-63.85,0-63.85,0"/><path class="c" d="M868.92,933.81s-119.49-119.17-155.98-166.26c-30.63-39.52-85.25-132.16-107.4-184.3-34.41-80.98-79.53-267.53-118.62-342.82-20.17-38.84-73.69-97.25-102.59-117.28-31.94-22.14-105.25-33.6-138.66-18.04-43.28,20.15-108.24,130.79-141.06,180.43-22.34,33.79-63.39,113.16-92.17,130.17-24.12,14.26-79.7-2.08-101.79-23.2-30.18-28.85-79.47-109.66-103.12-151.39-16.71-29.48-55.57-136.01-55.57-136.01"/><path class="c" d="M819.83,310.63s-72.64-5.79-124.03,18.87c-49.67,23.84-85.35,68.7-111.26,94.37-18.71,18.55-41.72,58.61-76.49,72.5-40.44,16.16-130.91,18.21-173.84,10.94-44.28-7.49-124.33-52.29-163.91-73.51-40.8-21.88-117.75-74.29-159.94-93.38-31.73-14.36-77.67-33.69-112.27-29.67-26.68,3.1-92.36,33.13-126.15,32.65-26.3-.37-67.6-43.22-93.38-48.45-11.79-2.39-47.96,3.75-47.96,3.75"/><path class="c" d="M819.83,396.06s-103.12-87.13-164.57-111.9c-46.02-18.54-147.41-20.75-196.28-29.35-49.99-8.79-115.56-23.41-192.61-64.2C184.55,147.29,131.95,58.66,84.77,17.27,59.13-5.23,18.73-35.93-40.88-35.93c-57.78,0-135.74,48.61-135.74,48.61"/><path class="c" d="M819.83,94.75s-112.74-62.02-161.07-72.01c-35.42-7.32-128.32-5.66-163.46,2.7-30.24,7.2-81.9,43.94-104.84,63.49-26.49,22.58-64.62,76.23-86.38,102.77-11.69,14.25-37.52,42.47-54.81,50.55-30,14.02-100.5,14.26-133.97,11.23-38.48-3.48-111.56-30.24-149.81-35.44-29.82-4.05-90.67-3.47-120.58,0-26.6,3.09-79.43,18.76-105.96,15.2-29.66-3.97-108.34-47.36-108.34-47.36"/><path class="c" d="M819.83-89.17s-59.17,5.07-77.78,10.02c-39.84,10.6-111.58,46.94-152.4,55.13-39.71,7.96-108.34,13.81-148.43,7.02-33.08-5.6-109.82-23.86-149.75-21.05C234.48-34.04,165.21-6.21,147.02,0,112.4,11.82,51.38,76.09,23.77,84.23c-37.66,11.11-161.68,0-161.68,0"/><g><line class="b" x1="205.59" y1="304.84" x2="148.26" y2="362.17"/><line class="b" x1="148.26" y1="304.84" x2="205.59" y2="362.17"/><line class="d" x1="205.59" y1="304.84" x2="148.26" y2="362.17"/><line class="d" x1="148.26" y1="304.84" x2="205.59" y2="362.17"/></g></svg>