<?xml version="1.0" encoding="UTF-8"?><svg id="a" xmlns="http://www.w3.org/2000/svg" viewBox="0 0 300 200"><defs><style>.b{fill:#f9ec62;}.c{fill:#f6aa62;}.d{fill:#fff;}.e{fill:#ffd363;}.f,.g{fill:#7bc1eb;}.g{opacity:.5;}</style></defs><polygon class="g" points="0 0 0 200 300 199.96 300 0 0 0"/><path class="f" d="M140.31,0s31.27,32.34,31.22,74.71c-.07,48.67-55.32,51.41-55.32,112.6,0,4.24,2.44,12.55,2.44,12.55l181.34,.1V0H140.31Z"/><circle class="d" cx="170.69" cy="12.38" r="5.12"/><circle class="d" cx="222.66" cy="92.44" r="5.12"/><circle class="d" cx="16.12" cy="153.85" r="5.12"/><circle class="d" cx="36.26" cy="105.4" r="5.12"/><circle class="d" cx="221.27" cy="64.49" r="9.65"/><circle class="d" cx="278.03" cy="59.54" r="5.12"/><circle class="d" cx="187.13" cy="57.87" r="5.12"/><circle class="d" cx="192.25" cy="82.89" r="5.12"/><circle class="d" cx="253" cy="74.14" r="5.12"/><circle class="d" cx="280.3" cy="92.87" r="5.12"/><circle class="d" cx="246.42" cy="105.4" r="5.12"/><circle class="d" cx="267.79" cy="124.97" r="5.12"/><circle class="d" cx="176.49" cy="112.62" r="12.35"/><circle class="d" cx="152.05" cy="138.48" r="5.12"/><circle class="d" cx="188.83" cy="141.04" r="7.68"/><circle class="d" cx="215.95" cy="119.84" r="5.12"/><circle class="d" cx="123.24" cy="50.42" r="5.12"/><circle class="d" cx="241.29" cy="136.66" r="5.12"/><circle class="d" cx="227.79" cy="161.28" r="7.68"/><circle class="d" cx="184.57" cy="175.41" r="7.68"/><circle class="d" cx="212.42" cy="180.01" r="5.12"/><circle class="d" cx="246.42" cy="183.09" r="5.12"/><circle class="d" cx="271.38" cy="155.05" r="5.12"/><circle class="d" cx="283.15" cy="180.08" r="7.39"/><circle class="d" cx="133.48" cy="161.28" r="5.12"/><circle class="d" cx="154.91" cy="167.72" r="5.12"/><circle class="d" cx="133.48" cy="187.47" r="5.12"/><circle class="d" cx="164.14" cy="189.2" r="5.12"/><circle class="d" cx="274.9" cy="26.07" r="8.64"/><circle class="d" cx="221.07" cy="9.14" r="5.12"/><circle class="d" cx="199.16" cy="32.04" r="5.12"/><circle class="d" cx="237.8" cy="41.01" r="5.12"/><circle class="d" cx="248.95" cy="18.3" r="5.12"/><g><ellipse class="c" cx="70.81" cy="155.05" rx="16.09" ry="7.99"/><polygon class="c" points="86.9 155.05 94.89 159.05 94.89 151.06 86.9 155.05"/></g><g><ellipse class="e" cx="48.99" cy="59.54" rx="16.09" ry="7.99"/><polygon class="e" points="65.08 59.54 73.07 63.53 73.07 55.54 65.08 59.54"/></g><g><ellipse class="b" cx="115.09" cy="100.28" rx="16.09" ry="7.99"/><polygon class="b" points="98.99 100.28 91 104.27 91 96.28 98.99 100.28"/></g></svg>