<?xml version="1.0" encoding="UTF-8"?><svg id="a" xmlns="http://www.w3.org/2000/svg" viewBox="0 0 500 500"><defs><style>.d{fill:#fff;}.e{fill:#82c7ff;fill-rule:evenodd;}.f{fill:#4d4d4d;opacity:.88;}</style></defs><rect class="d" x="-21.39" y="-22.54" width="573.81" height="541.22"/><g><path d="M46.03,165.6v16.75c0,.75-.61,1.36-1.36,1.36h-3.22c-8,0-8.84-2.26-8.84-3.23v-13c0-.97,.86-3.23,8.84-3.23h3.2c.75,0,1.36,.59,1.37,1.34h0Zm-2.71,15.4v-14.04h-1.86c-3.29,0-5.44,.54-6.13,.91v12.23c.69,.37,2.84,.91,6.13,.91h1.86Z"/><path d="M35.34,167.25v13.44c0,.75-.61,1.36-1.36,1.36h-3.2c-5.87,0-8.84-.96-8.84-2.86v-10.44c0-1.9,3-2.86,8.84-2.86h3.2c.75,0,1.36,.61,1.36,1.36Zm-2.72,12.08v-10.72h-1.85c-3.18,0-5.32,.4-6.13,.7v9.32c.81,.3,2.95,.7,6.13,.7h1.85Z"/><path d="M24.66,168.9v10.14c0,.75-.6,1.36-1.35,1.37h-3.22c-8.84,0-8.84-1.68-8.84-2.5v-7.87c0-.81,0-2.5,8.84-2.5h3.21c.75,0,1.36,.61,1.36,1.36h0Zm-2.71,8.79v-7.41h-1.86c-2.05-.06-4.11,.11-6.13,.5v6.4c2.02,.39,4.07,.56,6.13,.5l1.86,.02Z"/><polygon points="49.3 172.62 132.7 172.62 118.74 162.18 51.36 165.84 49.3 172.62"/><polygon points="49.3 175.33 132.7 175.33 118.74 185.77 51.36 182.11 49.3 175.33"/><path d="M49.14,154.15l-6.5,19.82,6.5,19.82s1.05,4.11,3.91,3.37c1.54-.41,2.13-2.5,2.13-4.82,0-3-.96-6.41-2.08-7.26-1.6-1.2-3.3,1.19-3.3,1.19l-3.75-12.3,3.75-12.3s1.7,2.39,3.3,1.19c1.13-.85,2.08-4.27,2.08-7.26,0-2.34-.59-4.42-2.13-4.82-2.86-.74-3.91,3.37-3.91,3.37Z"/></g><g><path d="M507.45,164.25v16.75c0,.75-.61,1.36-1.36,1.36h-3.22c-8,0-8.84-2.26-8.84-3.23v-13c0-.97,.86-3.23,8.84-3.23h3.2c.75,0,1.36,.59,1.37,1.34h0Zm-2.71,15.4v-14.04h-1.86c-3.29,0-5.44,.54-6.13,.91v12.23c.69,.37,2.84,.91,6.13,.91h1.86Z"/><path d="M496.77,165.91v13.44c0,.75-.61,1.36-1.36,1.36h-3.2c-5.87,0-8.84-.96-8.84-2.86v-10.44c0-1.9,3-2.86,8.84-2.86h3.2c.75,0,1.36,.61,1.36,1.36Zm-2.72,12.08v-10.72h-1.85c-3.18,0-5.32,.4-6.13,.7v9.32c.81,.3,2.95,.7,6.13,.7h1.85Z"/><path d="M486.08,167.56v10.14c0,.75-.6,1.36-1.35,1.37h-3.22c-8.84,0-8.84-1.68-8.84-2.5v-7.87c0-.81,0-2.5,8.84-2.5h3.21c.75,0,1.36,.61,1.36,1.36h0Zm-2.71,8.79v-7.41h-1.86c-2.05-.06-4.11,.11-6.13,.5v6.4c2.02,.39,4.07,.56,6.13,.5l1.86,.02Z"/></g><g><path d="M125.76,218.34v16.75c0,.75-.61,1.36-1.36,1.36h-3.22c-8,0-8.84-2.26-8.84-3.23v-13c0-.97,.86-3.23,8.84-3.23h3.2c.75,0,1.36,.59,1.37,1.34h0Zm-2.71,15.4v-14.04h-1.86c-3.29,0-5.44,.54-6.13,.91v12.23c.69,.37,2.84,.91,6.13,.91h1.86Z"/><path d="M115.08,219.99v13.44c0,.75-.61,1.36-1.36,1.36h-3.2c-5.87,0-8.84-.96-8.84-2.86v-10.44c0-1.9,3-2.86,8.84-2.86h3.2c.75,0,1.36,.61,1.36,1.36Zm-2.72,12.08v-10.72h-1.85c-3.18,0-5.32,.4-6.13,.7v9.32c.81,.3,2.95,.7,6.13,.7h1.85Z"/><path d="M104.39,221.64v10.14c0,.75-.6,1.36-1.35,1.37h-3.22c-8.84,0-8.84-1.68-8.84-2.5v-7.87c0-.81,0-2.5,8.84-2.5h3.21c.75,0,1.36,.61,1.36,1.36h0Zm-2.71,8.79v-7.41h-1.86c-2.05-.06-4.11,.11-6.13,.5v6.4c2.02,.39,4.07,.56,6.13,.5l1.86,.02Z"/><polygon points="129.03 225.36 212.43 225.36 198.47 214.92 131.1 218.58 129.03 225.36"/><polygon points="129.03 228.07 212.43 228.07 198.47 238.51 131.1 234.85 129.03 228.07"/><path d="M128.88,206.89l-6.5,19.82,6.5,19.82s1.05,4.11,3.91,3.37c1.54-.41,2.13-2.5,2.13-4.82,0-3-.96-6.41-2.08-7.26-1.6-1.2-3.3,1.19-3.3,1.19l-3.75-12.3,3.75-12.3s1.7,2.39,3.3,1.19c1.13-.85,2.08-4.27,2.08-7.26,0-2.34-.59-4.42-2.13-4.82-2.86-.74-3.91,3.37-3.91,3.37Z"/></g><g><path d="M197,165.6v16.75c0,.75-.61,1.36-1.36,1.36h-3.22c-8,0-8.84-2.26-8.84-3.23v-13c0-.97,.86-3.23,8.84-3.23h3.2c.75,0,1.36,.59,1.37,1.34h0Zm-2.71,15.4v-14.04h-1.86c-3.29,0-5.44,.54-6.13,.91v12.23c.69,.37,2.84,.91,6.13,.91h1.86Z"/><path d="M186.32,167.26v13.44c0,.75-.61,1.36-1.36,1.36h-3.2c-5.87,0-8.84-.96-8.84-2.86v-10.44c0-1.9,3-2.86,8.84-2.86h3.2c.75,0,1.36,.61,1.36,1.36Zm-2.72,12.08v-10.72h-1.85c-3.18,0-5.32,.4-6.13,.7v9.32c.81,.3,2.95,.7,6.13,.7h1.85Z"/><path d="M175.63,168.91v10.14c0,.75-.6,1.36-1.35,1.37h-3.22c-8.84,0-8.84-1.68-8.84-2.5v-7.87c0-.81,0-2.5,8.84-2.5h3.21c.75,0,1.36,.61,1.36,1.36h0Zm-2.71,8.79v-7.41h-1.86c-2.05-.06-4.11,.11-6.13,.5v6.4c2.02,.39,4.07,.56,6.13,.5l1.86,.02Z"/><polygon points="200.27 172.62 283.67 172.62 269.71 162.19 202.34 165.85 200.27 172.62"/><polygon points="200.27 175.33 283.67 175.33 269.71 185.77 202.34 182.11 200.27 175.33"/><path d="M200.12,154.15l-6.5,19.82,6.5,19.82s1.05,4.11,3.91,3.37c1.54-.41,2.13-2.5,2.13-4.82,0-3-.96-6.41-2.08-7.26-1.6-1.2-3.3,1.19-3.3,1.19l-3.75-12.3,3.75-12.3s1.7,2.39,3.3,1.19c1.13-.85,2.08-4.27,2.08-7.26,0-2.34-.59-4.42-2.13-4.82-2.86-.74-3.91,3.37-3.91,3.37Z"/></g><g><path d="M276.74,218.34v16.75c0,.75-.61,1.36-1.36,1.36h-3.22c-8,0-8.84-2.26-8.84-3.23v-13c0-.97,.86-3.23,8.84-3.23h3.2c.75,0,1.36,.59,1.37,1.34h0Zm-2.71,15.4v-14.04h-1.86c-3.29,0-5.44,.54-6.13,.91v12.23c.69,.37,2.84,.91,6.13,.91h1.86Z"/><path d="M266.06,220v13.44c0,.75-.61,1.36-1.36,1.36h-3.2c-5.87,0-8.84-.96-8.84-2.86v-10.44c0-1.9,3-2.86,8.84-2.86h3.2c.75,0,1.36,.61,1.36,1.36Zm-2.72,12.08v-10.72h-1.85c-3.18,0-5.32,.4-6.13,.7v9.32c.81,.3,2.95,.7,6.13,.7h1.85Z"/><path d="M255.37,221.65v10.14c0,.75-.6,1.36-1.35,1.37h-3.22c-8.84,0-8.84-1.68-8.84-2.5v-7.87c0-.81,0-2.5,8.84-2.5h3.21c.75,0,1.36,.61,1.36,1.36h0Zm-2.71,8.79v-7.41h-1.86c-2.05-.06-4.11,.11-6.13,.5v6.4c2.02,.39,4.07,.56,6.13,.5l1.86,.02Z"/><polygon points="280.01 225.37 363.41 225.37 349.45 214.93 282.08 218.59 280.01 225.37"/><polygon points="280.01 228.08 363.41 228.08 349.45 238.51 282.08 234.85 280.01 228.08"/><path d="M279.85,206.9l-6.5,19.82,6.5,19.82s1.05,4.11,3.91,3.37c1.54-.41,2.13-2.5,2.13-4.82,0-3-.96-6.41-2.08-7.26-1.6-1.2-3.3,1.19-3.3,1.19l-3.75-12.3,3.75-12.3s1.7,2.39,3.3,1.19c1.13-.85,2.08-4.27,2.08-7.26,0-2.34-.59-4.42-2.13-4.82-2.86-.74-3.91,3.37-3.91,3.37Z"/></g><g><path d="M347.98,164.25v16.75c0,.75-.61,1.36-1.36,1.36h-3.22c-8,0-8.84-2.26-8.84-3.23v-13c0-.97,.86-3.23,8.84-3.23h3.2c.75,0,1.36,.59,1.37,1.34h0Zm-2.71,15.4v-14.04h-1.86c-3.29,0-5.44,.54-6.13,.91v12.23c.69,.37,2.84,.91,6.13,.91h1.86Z"/><path d="M337.29,165.9v13.44c0,.75-.61,1.36-1.36,1.36h-3.2c-5.87,0-8.84-.96-8.84-2.86v-10.44c0-1.9,3-2.86,8.84-2.86h3.2c.75,0,1.36,.61,1.36,1.36Zm-2.72,12.08v-10.72h-1.85c-3.18,0-5.32,.4-6.13,.7v9.32c.81,.3,2.95,.7,6.13,.7h1.85Z"/><path d="M326.61,167.55v10.14c0,.75-.6,1.36-1.35,1.37h-3.22c-8.84,0-8.84-1.68-8.84-2.5v-7.87c0-.81,0-2.5,8.84-2.5h3.21c.75,0,1.36,.61,1.36,1.36h0Zm-2.71,8.79v-7.41h-1.86c-2.05-.06-4.11,.11-6.13,.5v6.4c2.02,.39,4.07,.56,6.13,.5l1.86,.02Z"/><polygon points="351.25 171.27 434.65 171.27 420.69 160.83 353.31 164.49 351.25 171.27"/><polygon points="351.25 173.98 434.65 173.98 420.69 184.42 353.31 180.76 351.25 173.98"/><path d="M351.09,152.8l-6.5,19.82,6.5,19.82s1.05,4.11,3.91,3.37c1.54-.41,2.13-2.5,2.13-4.82,0-3-.96-6.41-2.08-7.26-1.6-1.2-3.3,1.19-3.3,1.19l-3.75-12.3,3.75-12.3s1.7,2.39,3.3,1.19c1.13-.85,2.08-4.27,2.08-7.26,0-2.34-.59-4.42-2.13-4.82-2.86-.74-3.91,3.37-3.91,3.37Z"/></g><g><path d="M427.71,219.69v16.75c0,.75-.61,1.36-1.36,1.36h-3.22c-8,0-8.84-2.26-8.84-3.23v-13c0-.97,.86-3.23,8.84-3.23h3.2c.75,0,1.36,.59,1.37,1.34h0Zm-2.71,15.4v-14.04h-1.86c-3.29,0-5.44,.54-6.13,.91v12.23c.69,.37,2.84,.91,6.13,.91h1.86Z"/><path d="M417.03,221.35v13.44c0,.75-.61,1.36-1.36,1.36h-3.2c-5.87,0-8.84-.96-8.84-2.86v-10.44c0-1.9,3-2.86,8.84-2.86h3.2c.75,0,1.36,.61,1.36,1.36Zm-2.72,12.08v-10.72h-1.85c-3.18,0-5.32,.4-6.13,.7v9.32c.81,.3,2.95,.7,6.13,.7h1.85Z"/><path d="M406.34,223v10.14c0,.75-.6,1.36-1.35,1.37h-3.22c-8.84,0-8.84-1.68-8.84-2.5v-7.87c0-.81,0-2.5,8.84-2.5h3.21c.75,0,1.36,.61,1.36,1.36h0Zm-2.71,8.79v-7.41h-1.86c-2.05-.06-4.11,.11-6.13,.5v6.4c2.02,.39,4.07,.56,6.13,.5l1.86,.02Z"/><polygon points="430.98 226.72 514.38 226.72 500.42 216.28 433.05 219.94 430.98 226.72"/><polygon points="430.98 229.43 514.38 229.43 500.42 239.86 433.05 236.2 430.98 229.43"/><path d="M430.83,208.25l-6.5,19.82,6.5,19.82s1.05,4.11,3.91,3.37c1.54-.41,2.13-2.5,2.13-4.82,0-3-.96-6.41-2.08-7.26-1.6-1.2-3.3,1.19-3.3,1.19l-3.75-12.3,3.75-12.3s1.7,2.39,3.3,1.19c1.13-.85,2.08-4.27,2.08-7.26,0-2.34-.59-4.42-2.13-4.82-2.86-.74-3.91,3.37-3.91,3.37Z"/></g><g><polygon points="-4.72 225.37 78.68 225.37 64.72 214.93 -2.66 218.59 -4.72 225.37"/><polygon points="-4.72 228.08 78.68 228.08 64.72 238.52 -2.66 234.86 -4.72 228.08"/><path d="M-4.88,206.9l-6.5,19.82,6.5,19.82s1.05,4.11,3.91,3.37c1.54-.41,2.13-2.5,2.13-4.82,0-3-.96-6.41-2.08-7.26-1.6-1.2-3.3,1.19-3.3,1.19l-3.75-12.3,3.75-12.3s1.7,2.39,3.3,1.19c1.13-.85,2.08-4.27,2.08-7.26,0-2.34-.59-4.42-2.13-4.82-2.86-.74-3.91,3.37-3.91,3.37Z"/></g><g><path d="M46.03,261.47v16.75c0,.75-.61,1.36-1.36,1.36h-3.22c-8,0-8.84-2.26-8.84-3.23v-13c0-.97,.86-3.23,8.84-3.23h3.2c.75,0,1.36,.59,1.37,1.34h0Zm-2.71,15.4v-14.04h-1.86c-3.29,0-5.44,.54-6.13,.91v12.23c.69,.37,2.84,.91,6.13,.91h1.86Z"/><path d="M35.34,263.12v13.44c0,.75-.61,1.36-1.36,1.36h-3.2c-5.87,0-8.84-.96-8.84-2.86v-10.44c0-1.9,3-2.86,8.84-2.86h3.2c.75,0,1.36,.61,1.36,1.36Zm-2.72,12.08v-10.72h-1.85c-3.18,0-5.32,.4-6.13,.7v9.32c.81,.3,2.95,.7,6.13,.7h1.85Z"/><path d="M24.66,264.77v10.14c0,.75-.6,1.36-1.35,1.37h-3.22c-8.84,0-8.84-1.68-8.84-2.5v-7.87c0-.81,0-2.5,8.84-2.5h3.21c.75,0,1.36,.61,1.36,1.36h0Zm-2.71,8.79v-7.41h-1.86c-2.05-.06-4.11,.11-6.13,.5v6.4c2.02,.39,4.07,.56,6.13,.5l1.86,.02Z"/><polygon points="49.3 268.49 132.7 268.49 118.74 258.05 51.36 261.71 49.3 268.49"/><polygon points="49.3 271.2 132.7 271.2 118.74 281.64 51.36 277.98 49.3 271.2"/><path d="M49.14,250.02l-6.5,19.82,6.5,19.82s1.05,4.11,3.91,3.37c1.54-.41,2.13-2.5,2.13-4.82,0-3-.96-6.41-2.08-7.26-1.6-1.2-3.3,1.19-3.3,1.19l-3.75-12.3,3.75-12.3s1.7,2.39,3.3,1.19c1.13-.85,2.08-4.27,2.08-7.26,0-2.34-.59-4.42-2.13-4.82-2.86-.74-3.91,3.37-3.91,3.37Z"/></g><g><path d="M507.45,260.12v16.75c0,.75-.61,1.36-1.36,1.36h-3.22c-8,0-8.84-2.26-8.84-3.23v-13c0-.97,.86-3.23,8.84-3.23h3.2c.75,0,1.36,.59,1.37,1.34h0Zm-2.71,15.4v-14.04h-1.86c-3.29,0-5.44,.54-6.13,.91v12.23c.69,.37,2.84,.91,6.13,.91h1.86Z"/><path d="M496.77,261.78v13.44c0,.75-.61,1.36-1.36,1.36h-3.2c-5.87,0-8.84-.96-8.84-2.86v-10.44c0-1.9,3-2.86,8.84-2.86h3.2c.75,0,1.36,.61,1.36,1.36Zm-2.72,12.08v-10.72h-1.85c-3.18,0-5.32,.4-6.13,.7v9.32c.81,.3,2.95,.7,6.13,.7h1.85Z"/><path d="M486.08,263.43v10.14c0,.75-.6,1.36-1.35,1.37h-3.22c-8.84,0-8.84-1.68-8.84-2.5v-7.87c0-.81,0-2.5,8.84-2.5h3.21c.75,0,1.36,.61,1.36,1.36h0Zm-2.71,8.79v-7.41h-1.86c-2.05-.06-4.11,.11-6.13,.5v6.4c2.02,.39,4.07,.56,6.13,.5l1.86,.02Z"/></g><g><path d="M125.76,314.21v16.75c0,.75-.61,1.36-1.36,1.36h-3.22c-8,0-8.84-2.26-8.84-3.23v-13c0-.97,.86-3.23,8.84-3.23h3.2c.75,0,1.36,.59,1.37,1.34h0Zm-2.71,15.4v-14.04h-1.86c-3.29,0-5.44,.54-6.13,.91v12.23c.69,.37,2.84,.91,6.13,.91h1.86Z"/><path d="M115.08,315.86v13.44c0,.75-.61,1.36-1.36,1.36h-3.2c-5.87,0-8.84-.96-8.84-2.86v-10.44c0-1.9,3-2.86,8.84-2.86h3.2c.75,0,1.36,.61,1.36,1.36Zm-2.72,12.08v-10.72h-1.85c-3.18,0-5.32,.4-6.13,.7v9.32c.81,.3,2.95,.7,6.13,.7h1.85Z"/><path d="M104.39,317.51v10.14c0,.75-.6,1.36-1.35,1.37h-3.22c-8.84,0-8.84-1.68-8.84-2.5v-7.87c0-.81,0-2.5,8.84-2.5h3.21c.75,0,1.36,.61,1.36,1.36h0Zm-2.71,8.79v-7.41h-1.86c-2.05-.06-4.11,.11-6.13,.5v6.4c2.02,.39,4.07,.56,6.13,.5l1.86,.02Z"/><polygon points="129.03 321.23 212.43 321.23 198.47 310.79 131.1 314.45 129.03 321.23"/><polygon points="129.03 323.94 212.43 323.94 198.47 334.38 131.1 330.72 129.03 323.94"/><path d="M128.88,302.76l-6.5,19.82,6.5,19.82s1.05,4.11,3.91,3.37c1.54-.41,2.13-2.5,2.13-4.82,0-3-.96-6.41-2.08-7.26-1.6-1.2-3.3,1.19-3.3,1.19l-3.75-12.3,3.75-12.3s1.7,2.39,3.3,1.19c1.13-.85,2.08-4.27,2.08-7.26,0-2.34-.59-4.42-2.13-4.82-2.86-.74-3.91,3.37-3.91,3.37Z"/></g><g><path d="M197,261.47v16.75c0,.75-.61,1.36-1.36,1.36h-3.22c-8,0-8.84-2.26-8.84-3.23v-13c0-.97,.86-3.23,8.84-3.23h3.2c.75,0,1.36,.59,1.37,1.34h0Zm-2.71,15.4v-14.04h-1.86c-3.29,0-5.44,.54-6.13,.91v12.23c.69,.37,2.84,.91,6.13,.91h1.86Z"/><path d="M186.32,263.13v13.44c0,.75-.61,1.36-1.36,1.36h-3.2c-5.87,0-8.84-.96-8.84-2.86v-10.44c0-1.9,3-2.86,8.84-2.86h3.2c.75,0,1.36,.61,1.36,1.36Zm-2.72,12.08v-10.72h-1.85c-3.18,0-5.32,.4-6.13,.7v9.32c.81,.3,2.95,.7,6.13,.7h1.85Z"/><path d="M175.63,264.78v10.14c0,.75-.6,1.36-1.35,1.37h-3.22c-8.84,0-8.84-1.68-8.84-2.5v-7.87c0-.81,0-2.5,8.84-2.5h3.21c.75,0,1.36,.61,1.36,1.36h0Zm-2.71,8.79v-7.41h-1.86c-2.05-.06-4.11,.11-6.13,.5v6.4c2.02,.39,4.07,.56,6.13,.5l1.86,.02Z"/><polygon points="200.27 268.49 283.67 268.49 269.71 258.06 202.34 261.72 200.27 268.49"/><polygon points="200.27 271.2 283.67 271.2 269.71 281.64 202.34 277.98 200.27 271.2"/><path d="M200.12,250.02l-6.5,19.82,6.5,19.82s1.05,4.11,3.91,3.37c1.54-.41,2.13-2.5,2.13-4.82,0-3-.96-6.41-2.08-7.26-1.6-1.2-3.3,1.19-3.3,1.19l-3.75-12.3,3.75-12.3s1.7,2.39,3.3,1.19c1.13-.85,2.08-4.27,2.08-7.26,0-2.34-.59-4.42-2.13-4.82-2.86-.74-3.91,3.37-3.91,3.37Z"/></g><g><path d="M276.74,314.21v16.75c0,.75-.61,1.36-1.36,1.36h-3.22c-8,0-8.84-2.26-8.84-3.23v-13c0-.97,.86-3.23,8.84-3.23h3.2c.75,0,1.36,.59,1.37,1.34h0Zm-2.71,15.4v-14.04h-1.86c-3.29,0-5.44,.54-6.13,.91v12.23c.69,.37,2.84,.91,6.13,.91h1.86Z"/><path d="M266.06,315.87v13.44c0,.75-.61,1.36-1.36,1.36h-3.2c-5.87,0-8.84-.96-8.84-2.86v-10.44c0-1.9,3-2.86,8.84-2.86h3.2c.75,0,1.36,.61,1.36,1.36Zm-2.72,12.08v-10.72h-1.85c-3.18,0-5.32,.4-6.13,.7v9.32c.81,.3,2.95,.7,6.13,.7h1.85Z"/><path d="M255.37,317.52v10.14c0,.75-.6,1.36-1.35,1.37h-3.22c-8.84,0-8.84-1.68-8.84-2.5v-7.87c0-.81,0-2.5,8.84-2.5h3.21c.75,0,1.36,.61,1.36,1.36h0Zm-2.71,8.79v-7.41h-1.86c-2.05-.06-4.11,.11-6.13,.5v6.4c2.02,.39,4.07,.56,6.13,.5l1.86,.02Z"/><polygon points="280.01 321.24 363.41 321.24 349.45 310.8 282.08 314.46 280.01 321.24"/><polygon points="280.01 323.95 363.41 323.95 349.45 334.38 282.08 330.72 280.01 323.95"/><path d="M279.85,302.77l-6.5,19.82,6.5,19.82s1.05,4.11,3.91,3.37c1.54-.41,2.13-2.5,2.13-4.82,0-3-.96-6.41-2.08-7.26-1.6-1.2-3.3,1.19-3.3,1.19l-3.75-12.3,3.75-12.3s1.7,2.39,3.3,1.19c1.13-.85,2.08-4.27,2.08-7.26,0-2.34-.59-4.42-2.13-4.82-2.86-.74-3.91,3.37-3.91,3.37Z"/></g><g><path d="M347.98,260.12v16.75c0,.75-.61,1.36-1.36,1.36h-3.22c-8,0-8.84-2.26-8.84-3.23v-13c0-.97,.86-3.23,8.84-3.23h3.2c.75,0,1.36,.59,1.37,1.34h0Zm-2.71,15.4v-14.04h-1.86c-3.29,0-5.44,.54-6.13,.91v12.23c.69,.37,2.84,.91,6.13,.91h1.86Z"/><path d="M337.29,261.77v13.44c0,.75-.61,1.36-1.36,1.36h-3.2c-5.87,0-8.84-.96-8.84-2.86v-10.44c0-1.9,3-2.86,8.84-2.86h3.2c.75,0,1.36,.61,1.36,1.36Zm-2.72,12.08v-10.72h-1.85c-3.18,0-5.32,.4-6.13,.7v9.32c.81,.3,2.95,.7,6.13,.7h1.85Z"/><path d="M326.61,263.42v10.14c0,.75-.6,1.36-1.35,1.37h-3.22c-8.84,0-8.84-1.68-8.84-2.5v-7.87c0-.81,0-2.5,8.84-2.5h3.21c.75,0,1.36,.61,1.36,1.36h0Zm-2.71,8.79v-7.41h-1.86c-2.05-.06-4.11,.11-6.13,.5v6.4c2.02,.39,4.07,.56,6.13,.5l1.86,.02Z"/><polygon points="351.25 267.14 434.65 267.14 420.69 256.7 353.31 260.36 351.25 267.14"/><polygon points="351.25 269.85 434.65 269.85 420.69 280.29 353.31 276.62 351.25 269.85"/><path d="M351.09,248.67l-6.5,19.82,6.5,19.82s1.05,4.11,3.91,3.37c1.54-.41,2.13-2.5,2.13-4.82,0-3-.96-6.41-2.08-7.26-1.6-1.2-3.3,1.19-3.3,1.19l-3.75-12.3,3.75-12.3s1.7,2.39,3.3,1.19c1.13-.85,2.08-4.27,2.08-7.26,0-2.34-.59-4.42-2.13-4.82-2.86-.74-3.91,3.37-3.91,3.37Z"/></g><g><path d="M427.71,315.56v16.75c0,.75-.61,1.36-1.36,1.36h-3.22c-8,0-8.84-2.26-8.84-3.23v-13c0-.97,.86-3.23,8.84-3.23h3.2c.75,0,1.36,.59,1.37,1.34h0Zm-2.71,15.4v-14.04h-1.86c-3.29,0-5.44,.54-6.13,.91v12.23c.69,.37,2.84,.91,6.13,.91h1.86Z"/><path d="M417.03,317.22v13.44c0,.75-.61,1.36-1.36,1.36h-3.2c-5.87,0-8.84-.96-8.84-2.86v-10.44c0-1.9,3-2.86,8.84-2.86h3.2c.75,0,1.36,.61,1.36,1.36Zm-2.72,12.08v-10.72h-1.85c-3.18,0-5.32,.4-6.13,.7v9.32c.81,.3,2.95,.7,6.13,.7h1.85Z"/><path d="M406.34,318.87v10.14c0,.75-.6,1.36-1.35,1.37h-3.22c-8.84,0-8.84-1.68-8.84-2.5v-7.87c0-.81,0-2.5,8.84-2.5h3.21c.75,0,1.36,.61,1.36,1.36h0Zm-2.71,8.79v-7.41h-1.86c-2.05-.06-4.11,.11-6.13,.5v6.4c2.02,.39,4.07,.56,6.13,.5l1.86,.02Z"/><polygon points="430.98 322.59 514.38 322.59 500.42 312.15 433.05 315.81 430.98 322.59"/><polygon points="430.98 325.3 514.38 325.3 500.42 335.73 433.05 332.07 430.98 325.3"/><path d="M430.83,304.12l-6.5,19.82,6.5,19.82s1.05,4.11,3.91,3.37c1.54-.41,2.13-2.5,2.13-4.82,0-3-.96-6.41-2.08-7.26-1.6-1.2-3.3,1.19-3.3,1.19l-3.75-12.3,3.75-12.3s1.7,2.39,3.3,1.19c1.13-.85,2.08-4.27,2.08-7.26,0-2.34-.59-4.42-2.13-4.82-2.86-.74-3.91,3.37-3.91,3.37Z"/></g><g><polygon points="-4.72 321.24 78.68 321.24 64.72 310.8 -2.66 314.46 -4.72 321.24"/><polygon points="-4.72 323.95 78.68 323.95 64.72 334.39 -2.66 330.73 -4.72 323.95"/><path d="M-4.88,302.77l-6.5,19.82,6.5,19.82s1.05,4.11,3.91,3.37c1.54-.41,2.13-2.5,2.13-4.82,0-3-.96-6.41-2.08-7.26-1.6-1.2-3.3,1.19-3.3,1.19l-3.75-12.3,3.75-12.3s1.7,2.39,3.3,1.19c1.13-.85,2.08-4.27,2.08-7.26,0-2.34-.59-4.42-2.13-4.82-2.86-.74-3.91,3.37-3.91,3.37Z"/></g><g><path d="M46.03,363.48v16.75c0,.75-.61,1.36-1.36,1.36h-3.22c-8,0-8.84-2.26-8.84-3.23v-13c0-.97,.86-3.23,8.84-3.23h3.2c.75,0,1.36,.59,1.37,1.34h0Zm-2.71,15.4v-14.04h-1.86c-3.29,0-5.44,.54-6.13,.91v12.23c.69,.37,2.84,.91,6.13,.91h1.86Z"/><path d="M35.34,365.14v13.44c0,.75-.61,1.36-1.36,1.36h-3.2c-5.87,0-8.84-.96-8.84-2.86v-10.44c0-1.9,3-2.86,8.84-2.86h3.2c.75,0,1.36,.61,1.36,1.36Zm-2.72,12.08v-10.72h-1.85c-3.18,0-5.32,.4-6.13,.7v9.32c.81,.3,2.95,.7,6.13,.7h1.85Z"/><path d="M24.66,366.79v10.14c0,.75-.6,1.36-1.35,1.37h-3.22c-8.84,0-8.84-1.68-8.84-2.5v-7.87c0-.81,0-2.5,8.84-2.5h3.21c.75,0,1.36,.61,1.36,1.36h0Zm-2.71,8.79v-7.41h-1.86c-2.05-.06-4.11,.11-6.13,.5v6.4c2.02,.39,4.07,.56,6.13,.5l1.86,.02Z"/><polygon points="49.3 370.5 132.7 370.5 118.74 360.07 51.36 363.73 49.3 370.5"/><polygon points="49.3 373.21 132.7 373.21 118.74 383.65 51.36 379.99 49.3 373.21"/><path d="M49.14,352.04l-6.5,19.82,6.5,19.82s1.05,4.11,3.91,3.37c1.54-.41,2.13-2.5,2.13-4.82,0-3-.96-6.41-2.08-7.26-1.6-1.2-3.3,1.19-3.3,1.19l-3.75-12.3,3.75-12.3s1.7,2.39,3.3,1.19c1.13-.85,2.08-4.27,2.08-7.26,0-2.34-.59-4.42-2.13-4.82-2.86-.74-3.91,3.37-3.91,3.37Z"/></g><g><path d="M507.45,362.14v16.75c0,.75-.61,1.36-1.36,1.36h-3.22c-8,0-8.84-2.26-8.84-3.23v-13c0-.97,.86-3.23,8.84-3.23h3.2c.75,0,1.36,.59,1.37,1.34h0Zm-2.71,15.4v-14.04h-1.86c-3.29,0-5.44,.54-6.13,.91v12.23c.69,.37,2.84,.91,6.13,.91h1.86Z"/><path d="M496.77,363.79v13.44c0,.75-.61,1.36-1.36,1.36h-3.2c-5.87,0-8.84-.96-8.84-2.86v-10.44c0-1.9,3-2.86,8.84-2.86h3.2c.75,0,1.36,.61,1.36,1.36Zm-2.72,12.08v-10.72h-1.85c-3.18,0-5.32,.4-6.13,.7v9.32c.81,.3,2.95,.7,6.13,.7h1.85Z"/><path d="M486.08,365.44v10.14c0,.75-.6,1.36-1.35,1.37h-3.22c-8.84,0-8.84-1.68-8.84-2.5v-7.87c0-.81,0-2.5,8.84-2.5h3.21c.75,0,1.36,.61,1.36,1.36h0Zm-2.71,8.79v-7.41h-1.86c-2.05-.06-4.11,.11-6.13,.5v6.4c2.02,.39,4.07,.56,6.13,.5l1.86,.02Z"/></g><g><path d="M125.76,416.22v16.75c0,.75-.61,1.36-1.36,1.36h-3.22c-8,0-8.84-2.26-8.84-3.23v-13c0-.97,.86-3.23,8.84-3.23h3.2c.75,0,1.36,.59,1.37,1.34h0Zm-2.71,15.4v-14.04h-1.86c-3.29,0-5.44,.54-6.13,.91v12.23c.69,.37,2.84,.91,6.13,.91h1.86Z"/><path d="M115.08,417.88v13.44c0,.75-.61,1.36-1.36,1.36h-3.2c-5.87,0-8.84-.96-8.84-2.86v-10.44c0-1.9,3-2.86,8.84-2.86h3.2c.75,0,1.36,.61,1.36,1.36Zm-2.72,12.08v-10.72h-1.85c-3.18,0-5.32,.4-6.13,.7v9.32c.81,.3,2.95,.7,6.13,.7h1.85Z"/><path d="M104.39,419.53v10.14c0,.75-.6,1.36-1.35,1.37h-3.22c-8.84,0-8.84-1.68-8.84-2.5v-7.87c0-.81,0-2.5,8.84-2.5h3.21c.75,0,1.36,.61,1.36,1.36h0Zm-2.71,8.79v-7.41h-1.86c-2.05-.06-4.11,.11-6.13,.5v6.4c2.02,.39,4.07,.56,6.13,.5l1.86,.02Z"/><polygon points="129.03 423.25 212.43 423.25 198.47 412.81 131.1 416.47 129.03 423.25"/><polygon points="129.03 425.96 212.43 425.96 198.47 436.39 131.1 432.73 129.03 425.96"/><path d="M128.88,404.78l-6.5,19.82,6.5,19.82s1.05,4.11,3.91,3.37c1.54-.41,2.13-2.5,2.13-4.82,0-3-.96-6.41-2.08-7.26-1.6-1.2-3.3,1.19-3.3,1.19l-3.75-12.3,3.75-12.3s1.7,2.39,3.3,1.19c1.13-.85,2.08-4.27,2.08-7.26,0-2.34-.59-4.42-2.13-4.82-2.86-.74-3.91,3.37-3.91,3.37Z"/></g><g><path d="M197,363.49v16.75c0,.75-.61,1.36-1.36,1.36h-3.22c-8,0-8.84-2.26-8.84-3.23v-13c0-.97,.86-3.23,8.84-3.23h3.2c.75,0,1.36,.59,1.37,1.34h0Zm-2.71,15.4v-14.04h-1.86c-3.29,0-5.44,.54-6.13,.91v12.23c.69,.37,2.84,.91,6.13,.91h1.86Z"/><path d="M186.32,365.14v13.44c0,.75-.61,1.36-1.36,1.36h-3.2c-5.87,0-8.84-.96-8.84-2.86v-10.44c0-1.9,3-2.86,8.84-2.86h3.2c.75,0,1.36,.61,1.36,1.36Zm-2.72,12.08v-10.72h-1.85c-3.18,0-5.32,.4-6.13,.7v9.32c.81,.3,2.95,.7,6.13,.7h1.85Z"/><path d="M175.63,366.79v10.14c0,.75-.6,1.36-1.35,1.37h-3.22c-8.84,0-8.84-1.68-8.84-2.5v-7.87c0-.81,0-2.5,8.84-2.5h3.21c.75,0,1.36,.61,1.36,1.36h0Zm-2.71,8.79v-7.41h-1.86c-2.05-.06-4.11,.11-6.13,.5v6.4c2.02,.39,4.07,.56,6.13,.5l1.86,.02Z"/><polygon points="200.27 370.51 283.67 370.51 269.71 360.07 202.34 363.73 200.27 370.51"/><polygon points="200.27 373.22 283.67 373.22 269.71 383.66 202.34 380 200.27 373.22"/><path d="M200.12,352.04l-6.5,19.82,6.5,19.82s1.05,4.11,3.91,3.37c1.54-.41,2.13-2.5,2.13-4.82,0-3-.96-6.41-2.08-7.26-1.6-1.2-3.3,1.19-3.3,1.19l-3.75-12.3,3.75-12.3s1.7,2.39,3.3,1.19c1.13-.85,2.08-4.27,2.08-7.26,0-2.34-.59-4.42-2.13-4.82-2.86-.74-3.91,3.37-3.91,3.37Z"/></g><g><path d="M276.74,416.23v16.75c0,.75-.61,1.36-1.36,1.36h-3.22c-8,0-8.84-2.26-8.84-3.23v-13c0-.97,.86-3.23,8.84-3.23h3.2c.75,0,1.36,.59,1.37,1.34h0Zm-2.71,15.4v-14.04h-1.86c-3.29,0-5.44,.54-6.13,.91v12.23c.69,.37,2.84,.91,6.13,.91h1.86Z"/><path d="M266.06,417.89v13.44c0,.75-.61,1.36-1.36,1.36h-3.2c-5.87,0-8.84-.96-8.84-2.86v-10.44c0-1.9,3-2.86,8.84-2.86h3.2c.75,0,1.36,.61,1.36,1.36Zm-2.72,12.08v-10.72h-1.85c-3.18,0-5.32,.4-6.13,.7v9.32c.81,.3,2.95,.7,6.13,.7h1.85Z"/><path d="M255.37,419.54v10.14c0,.75-.6,1.36-1.35,1.37h-3.22c-8.84,0-8.84-1.68-8.84-2.5v-7.87c0-.81,0-2.5,8.84-2.5h3.21c.75,0,1.36,.61,1.36,1.36h0Zm-2.71,8.79v-7.41h-1.86c-2.05-.06-4.11,.11-6.13,.5v6.4c2.02,.39,4.07,.56,6.13,.5l1.86,.02Z"/><polygon points="280.01 423.25 363.41 423.25 349.45 412.81 282.08 416.47 280.01 423.25"/><polygon points="280.01 425.96 363.41 425.96 349.45 436.4 282.08 432.74 280.01 425.96"/><path d="M279.85,404.78l-6.5,19.82,6.5,19.82s1.05,4.11,3.91,3.37c1.54-.41,2.13-2.5,2.13-4.82,0-3-.96-6.41-2.08-7.26-1.6-1.2-3.3,1.19-3.3,1.19l-3.75-12.3,3.75-12.3s1.7,2.39,3.3,1.19c1.13-.85,2.08-4.27,2.08-7.26,0-2.34-.59-4.42-2.13-4.82-2.86-.74-3.91,3.37-3.91,3.37Z"/></g><g><path d="M347.98,362.13v16.75c0,.75-.61,1.36-1.36,1.36h-3.22c-8,0-8.84-2.26-8.84-3.23v-13c0-.97,.86-3.23,8.84-3.23h3.2c.75,0,1.36,.59,1.37,1.34h0Zm-2.71,15.4v-14.04h-1.86c-3.29,0-5.44,.54-6.13,.91v12.23c.69,.37,2.84,.91,6.13,.91h1.86Z"/><path d="M337.29,363.79v13.44c0,.75-.61,1.36-1.36,1.36h-3.2c-5.87,0-8.84-.96-8.84-2.86v-10.44c0-1.9,3-2.86,8.84-2.86h3.2c.75,0,1.36,.61,1.36,1.36Zm-2.72,12.08v-10.72h-1.85c-3.18,0-5.32,.4-6.13,.7v9.32c.81,.3,2.95,.7,6.13,.7h1.85Z"/><path d="M326.61,365.44v10.14c0,.75-.6,1.36-1.35,1.37h-3.22c-8.84,0-8.84-1.68-8.84-2.5v-7.87c0-.81,0-2.5,8.84-2.5h3.21c.75,0,1.36,.61,1.36,1.36h0Zm-2.71,8.79v-7.41h-1.86c-2.05-.06-4.11,.11-6.13,.5v6.4c2.02,.39,4.07,.56,6.13,.5l1.86,.02Z"/><polygon points="351.25 369.15 434.65 369.15 420.69 358.72 353.31 362.38 351.25 369.15"/><polygon points="351.25 371.86 434.65 371.86 420.69 382.3 353.31 378.64 351.25 371.86"/><path d="M351.09,350.69l-6.5,19.82,6.5,19.82s1.05,4.11,3.91,3.37c1.54-.41,2.13-2.5,2.13-4.82,0-3-.96-6.41-2.08-7.26-1.6-1.2-3.3,1.19-3.3,1.19l-3.75-12.3,3.75-12.3s1.7,2.39,3.3,1.19c1.13-.85,2.08-4.27,2.08-7.26,0-2.34-.59-4.42-2.13-4.82-2.86-.74-3.91,3.37-3.91,3.37Z"/></g><g><path d="M427.71,417.58v16.75c0,.75-.61,1.36-1.36,1.36h-3.22c-8,0-8.84-2.26-8.84-3.23v-13c0-.97,.86-3.23,8.84-3.23h3.2c.75,0,1.36,.59,1.37,1.34h0Zm-2.71,15.4v-14.04h-1.86c-3.29,0-5.44,.54-6.13,.91v12.23c.69,.37,2.84,.91,6.13,.91h1.86Z"/><path d="M417.03,419.24v13.44c0,.75-.61,1.36-1.36,1.36h-3.2c-5.87,0-8.84-.96-8.84-2.86v-10.44c0-1.9,3-2.86,8.84-2.86h3.2c.75,0,1.36,.61,1.36,1.36Zm-2.72,12.08v-10.72h-1.85c-3.18,0-5.32,.4-6.13,.7v9.32c.81,.3,2.95,.7,6.13,.7h1.85Z"/><path d="M406.34,420.89v10.14c0,.75-.6,1.36-1.35,1.37h-3.22c-8.84,0-8.84-1.68-8.84-2.5v-7.87c0-.81,0-2.5,8.84-2.5h3.21c.75,0,1.36,.61,1.36,1.36h0Zm-2.71,8.79v-7.41h-1.86c-2.05-.06-4.11,.11-6.13,.5v6.4c2.02,.39,4.07,.56,6.13,.5l1.86,.02Z"/><polygon points="430.98 424.6 514.38 424.6 500.42 414.16 433.05 417.83 430.98 424.6"/><polygon points="430.98 427.31 514.38 427.31 500.42 437.75 433.05 434.09 430.98 427.31"/><path d="M430.83,406.13l-6.5,19.82,6.5,19.82s1.05,4.11,3.91,3.37c1.54-.41,2.13-2.5,2.13-4.82,0-3-.96-6.41-2.08-7.26-1.6-1.2-3.3,1.19-3.3,1.19l-3.75-12.3,3.75-12.3s1.7,2.39,3.3,1.19c1.13-.85,2.08-4.27,2.08-7.26,0-2.34-.59-4.42-2.13-4.82-2.86-.74-3.91,3.37-3.91,3.37Z"/></g><g><polygon points="-4.72 423.26 78.68 423.26 64.72 412.82 -2.66 416.48 -4.72 423.26"/><polygon points="-4.72 425.97 78.68 425.97 64.72 436.4 -2.66 432.74 -4.72 425.97"/><path d="M-4.88,404.79l-6.5,19.82,6.5,19.82s1.05,4.11,3.91,3.37c1.54-.41,2.13-2.5,2.13-4.82,0-3-.96-6.41-2.08-7.26-1.6-1.2-3.3,1.19-3.3,1.19l-3.75-12.3,3.75-12.3s1.7,2.39,3.3,1.19c1.13-.85,2.08-4.27,2.08-7.26,0-2.34-.59-4.42-2.13-4.82-2.86-.74-3.91,3.37-3.91,3.37Z"/></g><g><path d="M125.76,19.1v16.75c0,.75-.61,1.36-1.36,1.36h-3.22c-8,0-8.84-2.26-8.84-3.23v-13c0-.97,.86-3.23,8.84-3.23h3.2c.75,0,1.36,.59,1.37,1.34h0Zm-2.71,15.4v-14.04h-1.86c-3.29,0-5.44,.54-6.13,.91v12.23c.69,.37,2.84,.91,6.13,.91h1.86Z"/><path d="M115.08,20.75v13.44c0,.75-.61,1.36-1.36,1.36h-3.2c-5.87,0-8.84-.96-8.84-2.86v-10.44c0-1.9,3-2.86,8.84-2.86h3.2c.75,0,1.36,.61,1.36,1.36Zm-2.72,12.08v-10.72h-1.85c-3.18,0-5.32,.4-6.13,.7v9.32c.81,.3,2.95,.7,6.13,.7h1.85Z"/><path d="M104.39,22.4v10.14c0,.75-.6,1.36-1.35,1.37h-3.22c-8.84,0-8.84-1.68-8.84-2.5v-7.87c0-.81,0-2.5,8.84-2.5h3.21c.75,0,1.36,.61,1.36,1.36h0Zm-2.71,8.79v-7.41h-1.86c-2.05-.06-4.11,.11-6.13,.5v6.4c2.02,.39,4.07,.56,6.13,.5l1.86,.02Z"/><polygon points="129.03 26.12 212.43 26.12 198.47 15.68 131.1 19.34 129.03 26.12"/><polygon points="129.03 28.83 212.43 28.83 198.47 39.27 131.1 35.61 129.03 28.83"/><path d="M128.88,7.65l-6.5,19.82,6.5,19.82s1.05,4.11,3.91,3.37c1.54-.41,2.13-2.5,2.13-4.82,0-3-.96-6.41-2.08-7.26-1.6-1.2-3.3,1.19-3.3,1.19l-3.75-12.3,3.75-12.3s1.7,2.39,3.3,1.19c1.13-.85,2.08-4.27,2.08-7.26,0-2.34-.59-4.42-2.13-4.82-2.86-.74-3.91,3.37-3.91,3.37Z"/></g><g><path d="M276.74,19.1v16.75c0,.75-.61,1.36-1.36,1.36h-3.22c-8,0-8.84-2.26-8.84-3.23v-13c0-.97,.86-3.23,8.84-3.23h3.2c.75,0,1.36,.59,1.37,1.34h0Zm-2.71,15.4v-14.04h-1.86c-3.29,0-5.44,.54-6.13,.91v12.23c.69,.37,2.84,.91,6.13,.91h1.86Z"/><path d="M266.06,20.76v13.44c0,.75-.61,1.36-1.36,1.36h-3.2c-5.87,0-8.84-.96-8.84-2.86v-10.44c0-1.9,3-2.86,8.84-2.86h3.2c.75,0,1.36,.61,1.36,1.36Zm-2.72,12.08v-10.72h-1.85c-3.18,0-5.32,.4-6.13,.7v9.32c.81,.3,2.95,.7,6.13,.7h1.85Z"/><path d="M255.37,22.41v10.14c0,.75-.6,1.36-1.35,1.37h-3.22c-8.84,0-8.84-1.68-8.84-2.5v-7.87c0-.81,0-2.5,8.84-2.5h3.21c.75,0,1.36,.61,1.36,1.36h0Zm-2.71,8.79v-7.41h-1.86c-2.05-.06-4.11,.11-6.13,.5v6.4c2.02,.39,4.07,.56,6.13,.5l1.86,.02Z"/><polygon points="280.01 26.12 363.41 26.12 349.45 15.69 282.08 19.35 280.01 26.12"/><polygon points="280.01 28.84 363.41 28.84 349.45 39.27 282.08 35.61 280.01 28.84"/><path d="M279.85,7.66l-6.5,19.82,6.5,19.82s1.05,4.11,3.91,3.37c1.54-.41,2.13-2.5,2.13-4.82,0-3-.96-6.41-2.08-7.26-1.6-1.2-3.3,1.19-3.3,1.19l-3.75-12.3,3.75-12.3s1.7,2.39,3.3,1.19c1.13-.85,2.08-4.27,2.08-7.26,0-2.34-.59-4.42-2.13-4.82-2.86-.74-3.91,3.37-3.91,3.37Z"/></g><g><path d="M427.71,20.45v16.75c0,.75-.61,1.36-1.36,1.36h-3.22c-8,0-8.84-2.26-8.84-3.23v-13c0-.97,.86-3.23,8.84-3.23h3.2c.75,0,1.36,.59,1.37,1.34h0Zm-2.71,15.4v-14.04h-1.86c-3.29,0-5.44,.54-6.13,.91v12.23c.69,.37,2.84,.91,6.13,.91h1.86Z"/><path d="M417.03,22.11v13.44c0,.75-.61,1.36-1.36,1.36h-3.2c-5.87,0-8.84-.96-8.84-2.86v-10.44c0-1.9,3-2.86,8.84-2.86h3.2c.75,0,1.36,.61,1.36,1.36Zm-2.72,12.08v-10.72h-1.85c-3.18,0-5.32,.4-6.13,.7v9.32c.81,.3,2.95,.7,6.13,.7h1.85Z"/><path d="M406.34,23.76v10.14c0,.75-.6,1.36-1.35,1.37h-3.22c-8.84,0-8.84-1.68-8.84-2.5v-7.87c0-.81,0-2.5,8.84-2.5h3.21c.75,0,1.36,.61,1.36,1.36h0Zm-2.71,8.79v-7.41h-1.86c-2.05-.06-4.11,.11-6.13,.5v6.4c2.02,.39,4.07,.56,6.13,.5l1.86,.02Z"/><polygon points="430.98 27.47 514.38 27.47 500.42 17.04 433.05 20.7 430.98 27.47"/><polygon points="430.98 30.19 514.38 30.19 500.42 40.62 433.05 36.96 430.98 30.19"/><path d="M430.83,9.01l-6.5,19.82,6.5,19.82s1.05,4.11,3.91,3.37c1.54-.41,2.13-2.5,2.13-4.82,0-3-.96-6.41-2.08-7.26-1.6-1.2-3.3,1.19-3.3,1.19l-3.75-12.3,3.75-12.3s1.7,2.39,3.3,1.19c1.13-.85,2.08-4.27,2.08-7.26,0-2.34-.59-4.42-2.13-4.82-2.86-.74-3.91,3.37-3.91,3.37Z"/></g><g><polygon points="-4.72 26.13 78.68 26.13 64.72 15.69 -2.66 19.35 -4.72 26.13"/><polygon points="-4.72 28.84 78.68 28.84 64.72 39.28 -2.66 35.62 -4.72 28.84"/><path d="M-4.88,7.66l-6.5,19.82,6.5,19.82s1.05,4.11,3.91,3.37c1.54-.41,2.13-2.5,2.13-4.82,0-3-.96-6.41-2.08-7.26-1.6-1.2-3.3,1.19-3.3,1.19l-3.75-12.3,3.75-12.3s1.7,2.39,3.3,1.19c1.13-.85,2.08-4.27,2.08-7.26C1.16,6.77,.57,4.69-.97,4.29c-2.86-.74-3.91,3.37-3.91,3.37Z"/></g><g><path d="M46.03,68.37v16.75c0,.75-.61,1.36-1.36,1.36h-3.22c-8,0-8.84-2.26-8.84-3.23v-13c0-.97,.86-3.23,8.84-3.23h3.2c.75,0,1.36,.59,1.37,1.34h0Zm-2.71,15.4v-14.04h-1.86c-3.29,0-5.44,.54-6.13,.91v12.23c.69,.37,2.84,.91,6.13,.91h1.86Z"/><path d="M35.34,70.03v13.44c0,.75-.61,1.36-1.36,1.36h-3.2c-5.87,0-8.84-.96-8.84-2.86v-10.44c0-1.9,3-2.86,8.84-2.86h3.2c.75,0,1.36,.61,1.36,1.36Zm-2.72,12.08v-10.72h-1.85c-3.18,0-5.32,.4-6.13,.7v9.32c.81,.3,2.95,.7,6.13,.7h1.85Z"/><path d="M24.66,71.68v10.14c0,.75-.6,1.36-1.35,1.37h-3.22c-8.84,0-8.84-1.68-8.84-2.5v-7.87c0-.81,0-2.5,8.84-2.5h3.21c.75,0,1.36,.61,1.36,1.36h0Zm-2.71,8.79v-7.41h-1.86c-2.05-.06-4.11,.11-6.13,.5v6.4c2.02,.39,4.07,.56,6.13,.5l1.86,.02Z"/><polygon points="49.3 75.39 132.7 75.39 118.74 64.96 51.36 68.62 49.3 75.39"/><polygon points="49.3 78.1 132.7 78.1 118.74 88.54 51.36 84.88 49.3 78.1"/><path d="M49.14,56.92l-6.5,19.82,6.5,19.82s1.05,4.11,3.91,3.37c1.54-.41,2.13-2.5,2.13-4.82,0-3-.96-6.41-2.08-7.26-1.6-1.2-3.3,1.19-3.3,1.19l-3.75-12.3,3.75-12.3s1.7,2.39,3.3,1.19c1.13-.85,2.08-4.27,2.08-7.26,0-2.34-.59-4.42-2.13-4.82-2.86-.74-3.91,3.37-3.91,3.37Z"/></g><g><path d="M507.45,67.03v16.75c0,.75-.61,1.36-1.36,1.36h-3.22c-8,0-8.84-2.26-8.84-3.23v-13c0-.97,.86-3.23,8.84-3.23h3.2c.75,0,1.36,.59,1.37,1.34h0Zm-2.71,15.4v-14.04h-1.86c-3.29,0-5.44,.54-6.13,.91v12.23c.69,.37,2.84,.91,6.13,.91h1.86Z"/><path d="M496.77,68.68v13.44c0,.75-.61,1.36-1.36,1.36h-3.2c-5.87,0-8.84-.96-8.84-2.86v-10.44c0-1.9,3-2.86,8.84-2.86h3.2c.75,0,1.36,.61,1.36,1.36Zm-2.72,12.08v-10.72h-1.85c-3.18,0-5.32,.4-6.13,.7v9.32c.81,.3,2.95,.7,6.13,.7h1.85Z"/><path d="M486.08,70.33v10.14c0,.75-.6,1.36-1.35,1.37h-3.22c-8.84,0-8.84-1.68-8.84-2.5v-7.87c0-.81,0-2.5,8.84-2.5h3.21c.75,0,1.36,.61,1.36,1.36h0Zm-2.71,8.79v-7.41h-1.86c-2.05-.06-4.11,.11-6.13,.5v6.4c2.02,.39,4.07,.56,6.13,.5l1.86,.02Z"/></g><g><path d="M125.76,121.11v16.75c0,.75-.61,1.36-1.36,1.36h-3.22c-8,0-8.84-2.26-8.84-3.23v-13c0-.97,.86-3.23,8.84-3.23h3.2c.75,0,1.36,.59,1.37,1.34h0Zm-2.71,15.4v-14.04h-1.86c-3.29,0-5.44,.54-6.13,.91v12.23c.69,.37,2.84,.91,6.13,.91h1.86Z"/><path d="M115.08,122.77v13.44c0,.75-.61,1.36-1.36,1.36h-3.2c-5.87,0-8.84-.96-8.84-2.86v-10.44c0-1.9,3-2.86,8.84-2.86h3.2c.75,0,1.36,.61,1.36,1.36Zm-2.72,12.08v-10.72h-1.85c-3.18,0-5.32,.4-6.13,.7v9.32c.81,.3,2.95,.7,6.13,.7h1.85Z"/><path d="M104.39,124.42v10.14c0,.75-.6,1.36-1.35,1.37h-3.22c-8.84,0-8.84-1.68-8.84-2.5v-7.87c0-.81,0-2.5,8.84-2.5h3.21c.75,0,1.36,.61,1.36,1.36h0Zm-2.71,8.79v-7.41h-1.86c-2.05-.06-4.11,.11-6.13,.5v6.4c2.02,.39,4.07,.56,6.13,.5l1.86,.02Z"/><polygon points="129.03 128.14 212.43 128.14 198.47 117.7 131.1 121.36 129.03 128.14"/><polygon points="129.03 130.85 212.43 130.85 198.47 141.28 131.1 137.62 129.03 130.85"/><path d="M128.88,109.67l-6.5,19.82,6.5,19.82s1.05,4.11,3.91,3.37c1.54-.41,2.13-2.5,2.13-4.82,0-3-.96-6.41-2.08-7.26-1.6-1.2-3.3,1.19-3.3,1.19l-3.75-12.3,3.75-12.3s1.7,2.39,3.3,1.19c1.13-.85,2.08-4.27,2.08-7.26,0-2.34-.59-4.42-2.13-4.82-2.86-.74-3.91,3.37-3.91,3.37Z"/></g><g><path d="M197,68.38v16.75c0,.75-.61,1.36-1.36,1.36h-3.22c-8,0-8.84-2.26-8.84-3.23v-13c0-.97,.86-3.23,8.84-3.23h3.2c.75,0,1.36,.59,1.37,1.34h0Zm-2.71,15.4v-14.04h-1.86c-3.29,0-5.44,.54-6.13,.91v12.23c.69,.37,2.84,.91,6.13,.91h1.86Z"/><path d="M186.32,70.03v13.44c0,.75-.61,1.36-1.36,1.36h-3.2c-5.87,0-8.84-.96-8.84-2.86v-10.44c0-1.9,3-2.86,8.84-2.86h3.2c.75,0,1.36,.61,1.36,1.36Zm-2.72,12.08v-10.72h-1.85c-3.18,0-5.32,.4-6.13,.7v9.32c.81,.3,2.95,.7,6.13,.7h1.85Z"/><path d="M175.63,71.68v10.14c0,.75-.6,1.36-1.35,1.37h-3.22c-8.84,0-8.84-1.68-8.84-2.5v-7.87c0-.81,0-2.5,8.84-2.5h3.21c.75,0,1.36,.61,1.36,1.36h0Zm-2.71,8.79v-7.41h-1.86c-2.05-.06-4.11,.11-6.13,.5v6.4c2.02,.39,4.07,.56,6.13,.5l1.86,.02Z"/><polygon points="200.27 75.4 283.67 75.4 269.71 64.96 202.34 68.62 200.27 75.4"/><polygon points="200.27 78.11 283.67 78.11 269.71 88.55 202.34 84.89 200.27 78.11"/><path d="M200.12,56.93l-6.5,19.82,6.5,19.82s1.05,4.11,3.91,3.37c1.54-.41,2.13-2.5,2.13-4.82,0-3-.96-6.41-2.08-7.26-1.6-1.2-3.3,1.19-3.3,1.19l-3.75-12.3,3.75-12.3s1.7,2.39,3.3,1.19c1.13-.85,2.08-4.27,2.08-7.26,0-2.34-.59-4.42-2.13-4.82-2.86-.74-3.91,3.37-3.91,3.37Z"/></g><g><path d="M276.74,121.12v16.75c0,.75-.61,1.36-1.36,1.36h-3.22c-8,0-8.84-2.26-8.84-3.23v-13c0-.97,.86-3.23,8.84-3.23h3.2c.75,0,1.36,.59,1.37,1.34h0Zm-2.71,15.4v-14.04h-1.86c-3.29,0-5.44,.54-6.13,.91v12.23c.69,.37,2.84,.91,6.13,.91h1.86Z"/><path d="M266.06,122.77v13.44c0,.75-.61,1.36-1.36,1.36h-3.2c-5.87,0-8.84-.96-8.84-2.86v-10.44c0-1.9,3-2.86,8.84-2.86h3.2c.75,0,1.36,.61,1.36,1.36Zm-2.72,12.08v-10.72h-1.85c-3.18,0-5.32,.4-6.13,.7v9.32c.81,.3,2.95,.7,6.13,.7h1.85Z"/><path d="M255.37,124.42v10.14c0,.75-.6,1.36-1.35,1.37h-3.22c-8.84,0-8.84-1.68-8.84-2.5v-7.87c0-.81,0-2.5,8.84-2.5h3.21c.75,0,1.36,.61,1.36,1.36h0Zm-2.71,8.79v-7.41h-1.86c-2.05-.06-4.11,.11-6.13,.5v6.4c2.02,.39,4.07,.56,6.13,.5l1.86,.02Z"/><polygon points="280.01 128.14 363.41 128.14 349.45 117.7 282.08 121.36 280.01 128.14"/><polygon points="280.01 130.85 363.41 130.85 349.45 141.29 282.08 137.63 280.01 130.85"/><path d="M279.85,109.67l-6.5,19.82,6.5,19.82s1.05,4.11,3.91,3.37c1.54-.41,2.13-2.5,2.13-4.82,0-3-.96-6.41-2.08-7.26-1.6-1.2-3.3,1.19-3.3,1.19l-3.75-12.3,3.75-12.3s1.7,2.39,3.3,1.19c1.13-.85,2.08-4.27,2.08-7.26,0-2.34-.59-4.42-2.13-4.82-2.86-.74-3.91,3.37-3.91,3.37Z"/></g><g><path d="M347.98,67.02v16.75c0,.75-.61,1.36-1.36,1.36h-3.22c-8,0-8.84-2.26-8.84-3.23v-13c0-.97,.86-3.23,8.84-3.23h3.2c.75,0,1.36,.59,1.37,1.34h0Zm-2.71,15.4v-14.04h-1.86c-3.29,0-5.44,.54-6.13,.91v12.23c.69,.37,2.84,.91,6.13,.91h1.86Z"/><path d="M337.29,68.68v13.44c0,.75-.61,1.36-1.36,1.36h-3.2c-5.87,0-8.84-.96-8.84-2.86v-10.44c0-1.9,3-2.86,8.84-2.86h3.2c.75,0,1.36,.61,1.36,1.36Zm-2.72,12.08v-10.72h-1.85c-3.18,0-5.32,.4-6.13,.7v9.32c.81,.3,2.95,.7,6.13,.7h1.85Z"/><path d="M326.61,70.33v10.14c0,.75-.6,1.36-1.35,1.37h-3.22c-8.84,0-8.84-1.68-8.84-2.5v-7.87c0-.81,0-2.5,8.84-2.5h3.21c.75,0,1.36,.61,1.36,1.36h0Zm-2.71,8.79v-7.41h-1.86c-2.05-.06-4.11,.11-6.13,.5v6.4c2.02,.39,4.07,.56,6.13,.5l1.86,.02Z"/><polygon points="351.25 74.04 434.65 74.04 420.69 63.61 353.31 67.27 351.25 74.04"/><polygon points="351.25 76.75 434.65 76.75 420.69 87.19 353.31 83.53 351.25 76.75"/><path d="M351.09,55.57l-6.5,19.82,6.5,19.82s1.05,4.11,3.91,3.37c1.54-.41,2.13-2.5,2.13-4.82,0-3-.96-6.41-2.08-7.26-1.6-1.2-3.3,1.19-3.3,1.19l-3.75-12.3,3.75-12.3s1.7,2.39,3.3,1.19c1.13-.85,2.08-4.27,2.08-7.26,0-2.34-.59-4.42-2.13-4.82-2.86-.74-3.91,3.37-3.91,3.37Z"/></g><g><path d="M427.71,122.47v16.75c0,.75-.61,1.36-1.36,1.36h-3.22c-8,0-8.84-2.26-8.84-3.23v-13c0-.97,.86-3.23,8.84-3.23h3.2c.75,0,1.36,.59,1.37,1.34h0Zm-2.71,15.4v-14.04h-1.86c-3.29,0-5.44,.54-6.13,.91v12.23c.69,.37,2.84,.91,6.13,.91h1.86Z"/><path d="M417.03,124.12v13.44c0,.75-.61,1.36-1.36,1.36h-3.2c-5.87,0-8.84-.96-8.84-2.86v-10.44c0-1.9,3-2.86,8.84-2.86h3.2c.75,0,1.36,.61,1.36,1.36Zm-2.72,12.08v-10.72h-1.85c-3.18,0-5.32,.4-6.13,.7v9.32c.81,.3,2.95,.7,6.13,.7h1.85Z"/><path d="M406.34,125.77v10.14c0,.75-.6,1.36-1.35,1.37h-3.22c-8.84,0-8.84-1.68-8.84-2.5v-7.87c0-.81,0-2.5,8.84-2.5h3.21c.75,0,1.36,.61,1.36,1.36h0Zm-2.71,8.79v-7.41h-1.86c-2.05-.06-4.11,.11-6.13,.5v6.4c2.02,.39,4.07,.56,6.13,.5l1.86,.02Z"/><polygon points="430.98 129.49 514.38 129.49 500.42 119.05 433.05 122.71 430.98 129.49"/><polygon points="430.98 132.2 514.38 132.2 500.42 142.64 433.05 138.98 430.98 132.2"/><path d="M430.83,111.02l-6.5,19.82,6.5,19.82s1.05,4.11,3.91,3.37c1.54-.41,2.13-2.5,2.13-4.82,0-3-.96-6.41-2.08-7.26-1.6-1.2-3.3,1.19-3.3,1.19l-3.75-12.3,3.75-12.3s1.7,2.39,3.3,1.19c1.13-.85,2.08-4.27,2.08-7.26,0-2.34-.59-4.42-2.13-4.82-2.86-.74-3.91,3.37-3.91,3.37Z"/></g><g><polygon points="-4.72 128.15 78.68 128.15 64.72 117.71 -2.66 121.37 -4.72 128.15"/><polygon points="-4.72 130.86 78.68 130.86 64.72 141.29 -2.66 137.63 -4.72 130.86"/><path d="M-4.88,109.68l-6.5,19.82,6.5,19.82s1.05,4.11,3.91,3.37c1.54-.41,2.13-2.5,2.13-4.82,0-3-.96-6.41-2.08-7.26-1.6-1.2-3.3,1.19-3.3,1.19l-3.75-12.3,3.75-12.3s1.7,2.39,3.3,1.19c1.13-.85,2.08-4.27,2.08-7.26,0-2.34-.59-4.42-2.13-4.82-2.86-.74-3.91,3.37-3.91,3.37Z"/></g><g><path d="M46.03,465.25v16.75c0,.75-.61,1.36-1.36,1.36h-3.22c-8,0-8.84-2.26-8.84-3.23v-13c0-.97,.86-3.23,8.84-3.23h3.2c.75,0,1.36,.59,1.37,1.34h0Zm-2.71,15.4v-14.04h-1.86c-3.29,0-5.44,.54-6.13,.91v12.23c.69,.37,2.84,.91,6.13,.91h1.86Z"/><path d="M35.34,466.91v13.44c0,.75-.61,1.36-1.36,1.36h-3.2c-5.87,0-8.84-.96-8.84-2.86v-10.44c0-1.9,3-2.86,8.84-2.86h3.2c.75,0,1.36,.61,1.36,1.36Zm-2.72,12.08v-10.72h-1.85c-3.18,0-5.32,.4-6.13,.7v9.32c.81,.3,2.95,.7,6.13,.7h1.85Z"/><path d="M24.66,468.56v10.14c0,.75-.6,1.36-1.35,1.37h-3.22c-8.84,0-8.84-1.68-8.84-2.5v-7.87c0-.81,0-2.5,8.84-2.5h3.21c.75,0,1.36,.61,1.36,1.36h0Zm-2.71,8.79v-7.41h-1.86c-2.05-.06-4.11,.11-6.13,.5v6.4c2.02,.39,4.07,.56,6.13,.5l1.86,.02Z"/><polygon points="49.3 472.27 132.7 472.27 118.74 461.83 51.36 465.49 49.3 472.27"/><polygon points="49.3 474.98 132.7 474.98 118.74 485.42 51.36 481.76 49.3 474.98"/><path d="M49.14,453.8l-6.5,19.82,6.5,19.82s1.05,4.11,3.91,3.37c1.54-.41,2.13-2.5,2.13-4.82,0-3-.96-6.41-2.08-7.26-1.6-1.2-3.3,1.19-3.3,1.19l-3.75-12.3,3.75-12.3s1.7,2.39,3.3,1.19c1.13-.85,2.08-4.27,2.08-7.26,0-2.34-.59-4.42-2.13-4.82-2.86-.74-3.91,3.37-3.91,3.37Z"/></g><g><path d="M507.45,463.9v16.75c0,.75-.61,1.36-1.36,1.36h-3.22c-8,0-8.84-2.26-8.84-3.23v-13c0-.97,.86-3.23,8.84-3.23h3.2c.75,0,1.36,.59,1.37,1.34h0Zm-2.71,15.4v-14.04h-1.86c-3.29,0-5.44,.54-6.13,.91v12.23c.69,.37,2.84,.91,6.13,.91h1.86Z"/><path d="M496.77,465.56v13.44c0,.75-.61,1.36-1.36,1.36h-3.2c-5.87,0-8.84-.96-8.84-2.86v-10.44c0-1.9,3-2.86,8.84-2.86h3.2c.75,0,1.36,.61,1.36,1.36Zm-2.72,12.08v-10.72h-1.85c-3.18,0-5.32,.4-6.13,.7v9.32c.81,.3,2.95,.7,6.13,.7h1.85Z"/><path d="M486.08,467.21v10.14c0,.75-.6,1.36-1.35,1.37h-3.22c-8.84,0-8.84-1.68-8.84-2.5v-7.87c0-.81,0-2.5,8.84-2.5h3.21c.75,0,1.36,.61,1.36,1.36h0Zm-2.71,8.79v-7.41h-1.86c-2.05-.06-4.11,.11-6.13,.5v6.4c2.02,.39,4.07,.56,6.13,.5l1.86,.02Z"/></g><g><path d="M197,465.25v16.75c0,.75-.61,1.36-1.36,1.36h-3.22c-8,0-8.84-2.26-8.84-3.23v-13c0-.97,.86-3.23,8.84-3.23h3.2c.75,0,1.36,.59,1.37,1.34h0Zm-2.71,15.4v-14.04h-1.86c-3.29,0-5.44,.54-6.13,.91v12.23c.69,.37,2.84,.91,6.13,.91h1.86Z"/><path d="M186.32,466.91v13.44c0,.75-.61,1.36-1.36,1.36h-3.2c-5.87,0-8.84-.96-8.84-2.86v-10.44c0-1.9,3-2.86,8.84-2.86h3.2c.75,0,1.36,.61,1.36,1.36Zm-2.72,12.08v-10.72h-1.85c-3.18,0-5.32,.4-6.13,.7v9.32c.81,.3,2.95,.7,6.13,.7h1.85Z"/><path d="M175.63,468.56v10.14c0,.75-.6,1.36-1.35,1.37h-3.22c-8.84,0-8.84-1.68-8.84-2.5v-7.87c0-.81,0-2.5,8.84-2.5h3.21c.75,0,1.36,.61,1.36,1.36h0Zm-2.71,8.79v-7.41h-1.86c-2.05-.06-4.11,.11-6.13,.5v6.4c2.02,.39,4.07,.56,6.13,.5l1.86,.02Z"/><polygon points="200.27 472.28 283.67 472.28 269.71 461.84 202.34 465.5 200.27 472.28"/><polygon points="200.27 474.99 283.67 474.99 269.71 485.42 202.34 481.76 200.27 474.99"/><path d="M200.12,453.81l-6.5,19.82,6.5,19.82s1.05,4.11,3.91,3.37c1.54-.41,2.13-2.5,2.13-4.82,0-3-.96-6.41-2.08-7.26-1.6-1.2-3.3,1.19-3.3,1.19l-3.75-12.3,3.75-12.3s1.7,2.39,3.3,1.19c1.13-.85,2.08-4.27,2.08-7.26,0-2.34-.59-4.42-2.13-4.82-2.86-.74-3.91,3.37-3.91,3.37Z"/></g><g><path d="M347.98,463.9v16.75c0,.75-.61,1.36-1.36,1.36h-3.22c-8,0-8.84-2.26-8.84-3.23v-13c0-.97,.86-3.23,8.84-3.23h3.2c.75,0,1.36,.59,1.37,1.34h0Zm-2.71,15.4v-14.04h-1.86c-3.29,0-5.44,.54-6.13,.91v12.23c.69,.37,2.84,.91,6.13,.91h1.86Z"/><path d="M337.29,465.55v13.44c0,.75-.61,1.36-1.36,1.36h-3.2c-5.87,0-8.84-.96-8.84-2.86v-10.44c0-1.9,3-2.86,8.84-2.86h3.2c.75,0,1.36,.61,1.36,1.36Zm-2.72,12.08v-10.72h-1.85c-3.18,0-5.32,.4-6.13,.7v9.32c.81,.3,2.95,.7,6.13,.7h1.85Z"/><path d="M326.61,467.21v10.14c0,.75-.6,1.36-1.35,1.37h-3.22c-8.84,0-8.84-1.68-8.84-2.5v-7.87c0-.81,0-2.5,8.84-2.5h3.21c.75,0,1.36,.61,1.36,1.36h0Zm-2.71,8.79v-7.41h-1.86c-2.05-.06-4.11,.11-6.13,.5v6.4c2.02,.39,4.07,.56,6.13,.5l1.86,.02Z"/><polygon points="351.25 470.92 434.65 470.92 420.69 460.48 353.31 464.14 351.25 470.92"/><polygon points="351.25 473.63 434.65 473.63 420.69 484.07 353.31 480.41 351.25 473.63"/><path d="M351.09,452.45l-6.5,19.82,6.5,19.82s1.05,4.11,3.91,3.37c1.54-.41,2.13-2.5,2.13-4.82,0-3-.96-6.41-2.08-7.26-1.6-1.2-3.3,1.19-3.3,1.19l-3.75-12.3,3.75-12.3s1.7,2.39,3.3,1.19c1.13-.85,2.08-4.27,2.08-7.26,0-2.34-.59-4.42-2.13-4.82-2.86-.74-3.91,3.37-3.91,3.37Z"/></g><rect class="f" x="-.97" width="500.97" height="498.84"/><path id="b" class="e" d="M-.97,372.64s19.81,.33,34.1-2.49c63.35-12.55,126.04-65.32,138.41-63.99,9.19,1,4.01,13.3,4.01,13.3,0,0-8.52,16.87-7.02,33.24,1.84,19.95,17.22,20.94,27.08,21.61,21.98,1.41,24.49,.58,37.11-.83,21.73-2.49,44.21-10.8,65.19-21.61,21.15-10.89,45.13-24.85,63.19-29.09,3.84-.91,10.53,2.74,8.02,9.97-2.67,7.65-9.28,14.38-12.04,24.1-1.59,5.49-2.09,11.47,4.01,13.3,8.69,2.66,20.06,.83,20.06,.83,0,0,33.1-1.75,66.19-13.3,16.8-5.9,53.16-23.27,53.16-23.27l.4,164.44H-.75l-.22-126.21Z"/><path id="c" class="e" d="M-.97,126.95s19.81-.33,34.1,2.49c63.35,12.55,126.04,65.32,138.41,63.99,9.19-1,4.01-13.3,4.01-13.3,0,0-8.52-16.87-7.02-33.24,1.84-19.95,17.22-20.94,27.08-21.61,21.98-1.41,24.49-.58,37.11,.83,21.73,2.49,44.21,10.8,65.19,21.61,21.15,10.89,45.13,24.85,63.19,29.09,3.84,.91,10.53-2.74,8.02-9.97-2.67-7.65-9.28-14.38-12.04-24.1-1.59-5.49-2.09-11.47,4.01-13.3,8.69-2.66,20.06-.83,20.06-.83,0,0,33.1,1.75,66.19,13.3,16.8,5.9,53.16,23.27,53.16,23.27l.4-164.44H-.75l-.22,126.21Z"/></svg>