<?xml version="1.0" encoding="utf-8"?>
<!-- Generator: Adobe Illustrator 26.2.0, SVG Export Plug-In . SVG Version: 6.00 Build 0)  -->
<svg version="1.1" id="Layer_1" xmlns="http://www.w3.org/2000/svg" xmlns:xlink="http://www.w3.org/1999/xlink" x="0px" y="0px"
	 viewBox="0 0 600 500" style="enable-background:new 0 0 600 500;" xml:space="preserve">
<style type="text/css">
	.st0{fill-rule:evenodd;clip-rule:evenodd;fill:#FFD773;}
	
		.st1{opacity:0.5;fill:none;stroke:#FFFFFF;stroke-width:50;stroke-linecap:round;stroke-linejoin:round;enable-background:new    ;}
	.st2{fill-rule:evenodd;clip-rule:evenodd;fill:#FFFFFF;}
	
		.st3{opacity:0.8016;fill-rule:evenodd;clip-rule:evenodd;stroke:#000000;stroke-width:4;stroke-linecap:round;stroke-linejoin:round;enable-background:new    ;}
	.st4{fill-rule:evenodd;clip-rule:evenodd;fill:#82C7FF;}
	
		.st5{opacity:0.5;fill-rule:evenodd;clip-rule:evenodd;stroke:#000000;stroke-width:4;stroke-linecap:round;stroke-linejoin:round;enable-background:new    ;}
	.st6{opacity:0.5;fill:none;stroke:#000000;stroke-width:6;stroke-linecap:round;stroke-linejoin:round;enable-background:new    ;}
	.st7{fill-rule:evenodd;clip-rule:evenodd;fill:#655482;}
	
		.st8{fill-rule:evenodd;clip-rule:evenodd;fill:url(#path2_00000023983360533470679830000007173923591648716733_);fill-opacity:0.75;}
	
		.st9{fill-rule:evenodd;clip-rule:evenodd;fill:url(#Path-copy_00000093164505152340822810000015628479570194349246_);fill-opacity:0.75;}
	.st10{fill:none;stroke:#FFFFFF;stroke-width:3;stroke-linejoin:round;}
	.st11{fill:none;stroke:#FFFFFF;stroke-width:3;stroke-linejoin:round;stroke-miterlimit:10;}
</style>
<path id="Rectangle" class="st0" d="M0,500h600V0H0V500z"/>
<path id="path57" class="st1" d="M79,39h71"/>
<path id="path58" class="st1" d="M212,70h71"/>
<path id="Line-copy-3" class="st1" d="M351,105h71"/>
<path id="Line-copy-4" class="st1" d="M410,39h71"/>
<path id="Shape" class="st2" d="M410,210.5c0,21.8-17.7,39.5-39.5,39.5S331,232.3,331,210.5s17.7-39.5,39.5-39.5
	S410,188.7,410,210.5z"/>
<path id="Line-copy" class="st3" d="M299,0v333"/>
<path id="Path" class="st4" d="M0,282c0,0,23.7,0.4,40.8-3c75.8-15.1,150.8-78.6,165.6-77c11,1.2,4.8,16,4.8,16s-10.2,20.3-8.4,40
	c2.2,24,20.6,25.2,32.4,26c26.3,1.7,29.3,0.7,44.4-1c26-3,52.9-13,78-26c25.3-13.1,54-29.9,75.6-35c4.6-1.1,12.6,3.3,9.6,12
	c-3.2,9.2-11.1,17.3-14.4,29c-1.9,6.6-2.5,13.8,4.8,16c10.4,3.2,24,1,24,1s39.6-2.1,79.2-16c20.1-7.1,63.6-28,63.6-28v264H0V282z"/>
<path id="Line" class="st5" d="M299,0v333"/>
<path id="path1" class="st6" d="M282.6,367.1c1.2,3.8,4.3,5,8.4,4.9c6.6-0.1,7.9-3.5,9-8c0.8-3.5-2.7-13.5-2.7-13.5"/>
<path id="Shape-copy" class="st7" d="M321,333.5c0,12.4-10.1,22.5-22.5,22.5S276,345.9,276,333.5s10.1-22.5,22.5-22.5
	S321,321.1,321,333.5z"/>
<linearGradient id="path2_00000018239559780641420340000008779830219637654145_" gradientUnits="userSpaceOnUse" x1="142" y1="289.5" x2="371" y2="289.5" gradientTransform="matrix(1 0 0 -1 0 500)">
	<stop  offset="0" style="stop-color:#FEF575;stop-opacity:0"/>
	<stop  offset="1" style="stop-color:#FFFFFF"/>
</linearGradient>
<path id="path2" style="fill-rule:evenodd;clip-rule:evenodd;fill:url(#path2_00000018239559780641420340000008779830219637654145_);fill-opacity:0.75;" d="
	M142,250h229v-79H142V250z"/>
<linearGradient id="Path-copy_00000135676267604753086880000013575846810988303784_" gradientUnits="userSpaceOnUse" x1="571" y1="289.5" x2="800" y2="289.5" gradientTransform="matrix(-1 0 0 -1 1171 500)">
	<stop  offset="0" style="stop-color:#FEF575;stop-opacity:0"/>
	<stop  offset="1" style="stop-color:#FFFFFF"/>
</linearGradient>
<path id="Path-copy" style="fill-rule:evenodd;clip-rule:evenodd;fill:url(#Path-copy_00000135676267604753086880000013575846810988303784_);fill-opacity:0.75;" d="
	M371,250h229v-79H371V250z"/>
<g id="Group">
	<g id="g1">
		<path id="path3" class="st10" d="M141.7,293v40L122,304l6.6-11H141.7z"/>
		<path id="path4" class="st10" d="M122,304h19.7"/>
		<path id="Line-copy-1" class="st10" d="M128,293l13.7,40"/>
		<path id="Line-copy-2" class="st10" d="M131.9,303.4l9.9-10.4"/>
	</g>
	<g id="Group-copy">
		<path id="path5" class="st10" d="M142.3,293v40l19.7-29l-6.6-11H142.3z"/>
		<path id="path6" class="st10" d="M162,304h-19.7"/>
		<path id="path7" class="st10" d="M156,293l-13.7,40"/>
		<path id="path8" class="st10" d="M152.1,303.4l-9.9-10.4"/>
	</g>
</g>
<g id="g2">
	<g id="g3">
		<path id="path9" class="st10" d="M189.7,341v40L170,352l6.6-11H189.7z"/>
		<path id="path10" class="st10" d="M170,352h19.7"/>
		<path id="path11" class="st10" d="M176,341l13.7,40"/>
		<path id="path12" class="st10" d="M179.9,351.4l9.9-10.4"/>
	</g>
	<g id="g4">
		<path id="path13" class="st10" d="M190.3,341v40l19.7-29l-6.6-11H190.3z"/>
		<path id="path14" class="st10" d="M210,352h-19.7"/>
		<path id="path15" class="st10" d="M204,341l-13.7,40"/>
		<path id="path16" class="st10" d="M200.1,351.4l-9.9-10.4"/>
	</g>
</g>
<g id="Group-copy-1">
	<g id="g5">
		<path id="path17" class="st11" d="M350.7,284v40L331,295l6.6-11H350.7z"/>
		<path id="path18" class="st11" d="M331,295h19.7"/>
		<path id="path19" class="st11" d="M337,284l13.7,40"/>
		<path id="path20" class="st11" d="M340.9,294.4l9.9-10.4"/>
	</g>
	<g id="g6">
		<path id="path21" class="st11" d="M351.3,284v40l19.7-29l-6.6-11H351.3z"/>
		<path id="path22" class="st11" d="M371,295h-19.7"/>
		<path id="path23" class="st11" d="M365,284l-13.7,40"/>
		<path id="path24" class="st11" d="M361.1,294.4l-9.9-10.4"/>
	</g>
</g>
<g id="Group-copy-2">
	<g id="g7">
		<path id="path25" class="st10" d="M413.7,351v40L394,362l6.6-11H413.7z"/>
		<path id="path26" class="st10" d="M394,362h19.7"/>
		<path id="path27" class="st10" d="M400,351l13.7,40"/>
		<path id="path28" class="st10" d="M403.9,361.4l9.9-10.4"/>
	</g>
	<g id="g8">
		<path id="path29" class="st10" d="M414.3,351v40l19.7-29l-6.6-11H414.3z"/>
		<path id="path30" class="st10" d="M434,362h-19.7"/>
		<path id="path31" class="st10" d="M428,351l-13.7,40"/>
		<path id="path32" class="st10" d="M424.1,361.4l-9.9-10.4"/>
	</g>
</g>
<g id="Group-copy-3">
	<g id="g9">
		<path id="path33" class="st10" d="M476.7,291v40L457,302l6.6-11H476.7z"/>
		<path id="path34" class="st10" d="M457,302h19.7"/>
		<path id="path35" class="st10" d="M463,291l13.7,40"/>
		<path id="path36" class="st10" d="M466.9,301.4l9.9-10.4"/>
	</g>
	<g id="g10">
		<path id="path37" class="st10" d="M477.3,291v40l19.7-29l-6.6-11H477.3z"/>
		<path id="path38" class="st10" d="M497,302h-19.7"/>
		<path id="path39" class="st10" d="M491,291l-13.7,40"/>
		<path id="path40" class="st10" d="M487.1,301.4l-9.9-10.4"/>
	</g>
</g>
<g id="Group-copy-7">
	<g id="g11">
		<path id="path41" class="st10" d="M101.7,391v40L82,402l6.6-11H101.7z"/>
		<path id="path42" class="st10" d="M82,402h19.7"/>
		<path id="path43" class="st10" d="M88,391l13.7,40"/>
		<path id="path44" class="st10" d="M91.9,401.4l9.9-10.4"/>
	</g>
	<g id="g12">
		<path id="path45" class="st10" d="M102.3,391v40l19.7-29l-6.6-11H102.3z"/>
		<path id="path46" class="st10" d="M122,402h-19.7"/>
		<path id="path47" class="st10" d="M116,391l-13.7,40"/>
		<path id="path48" class="st10" d="M112.1,401.4l-9.9-10.4"/>
	</g>
</g>
<g id="Group-copy-11">
	<g id="g13">
		<path id="path49" class="st10" d="M496.7,366v40L477,377l6.6-11H496.7z"/>
		<path id="path50" class="st10" d="M477,377h19.7"/>
		<path id="path51" class="st10" d="M483,366l13.7,40"/>
		<path id="path52" class="st10" d="M486.9,376.4l9.9-10.4"/>
	</g>
	<g id="g14">
		<path id="path53" class="st10" d="M497.3,366v40l19.7-29l-6.6-11H497.3z"/>
		<path id="path54" class="st10" d="M517,377h-19.7"/>
		<path id="path55" class="st10" d="M511,366l-13.7,40"/>
		<path id="path56" class="st10" d="M507.1,376.4l-9.9-10.4"/>
	</g>
</g>
</svg>
