<?xml version="1.0" encoding="utf-8"?>
<!-- Generator: Adobe Illustrator 26.2.0, SVG Export Plug-In . SVG Version: 6.00 Build 0)  -->
<svg version="1.1" id="a" xmlns="http://www.w3.org/2000/svg" xmlns:xlink="http://www.w3.org/1999/xlink" x="0px" y="0px"
	 viewBox="0 0 300 200" style="enable-background:new 0 0 300 200;" xml:space="preserve">
<style type="text/css">
	.st0{fill:#416480;}
	.st1{fill:#996A41;}
	.st2{fill:#FFB26B;}
	.st3{fill:#FFEBD9;}
	.st4{opacity:0.5;fill:#FFEBD9;}
	.st5{fill:#FF8288;}
	.st6{fill:#CC686C;}
	.st7{fill:#994E51;}
	.st8{fill:#CC686D;}
	.st9{fill:#994E52;}
</style>
<rect x="0.5" y="-0.3" class="st0" width="298.4" height="138.4"/>
<rect y="169.3" class="st1" width="300.1" height="30.7"/>
<rect y="138.1" class="st2" width="300.1" height="31.2"/>
<ellipse class="st3" cx="155" cy="152.8" rx="29.1" ry="10.8"/>
<polyline class="st4" points="125.9,152.8 185.8,0.7 213.1,0.3 184,152.8 "/>
<polyline class="st4" points="184,152.8 124.1,0.7 96.8,0.3 125.9,152.8 "/>
<g>
	<ellipse class="st5" cx="0" cy="0" rx="67.9" ry="143"/>
	<ellipse class="st5" cx="-0.3" cy="-0.3" rx="67.9" ry="143"/>
	<ellipse class="st6" cx="-20.1" cy="-0.3" rx="67.9" ry="143"/>
	<ellipse class="st7" cx="-39.3" cy="-1" rx="67.9" ry="143"/>
	<ellipse class="st5" cx="0" cy="286" rx="67.9" ry="143"/>
	<ellipse class="st8" cx="-20.1" cy="286" rx="67.9" ry="143"/>
	<ellipse class="st9" cx="-39.3" cy="286" rx="67.9" ry="143"/>
	<ellipse class="st5" cx="299.7" cy="1" rx="67.9" ry="143"/>
	<ellipse class="st5" cx="300.1" cy="0.7" rx="67.9" ry="143"/>
	<ellipse class="st6" cx="319.9" cy="0.7" rx="67.9" ry="143"/>
	<ellipse class="st7" cx="339" cy="0" rx="67.9" ry="143"/>
	<ellipse class="st5" cx="299.7" cy="287" rx="67.9" ry="143"/>
	<ellipse class="st8" cx="319.9" cy="287" rx="67.9" ry="143"/>
	<ellipse class="st9" cx="339" cy="287" rx="67.9" ry="143"/>
	<ellipse class="st5" cx="149.9" cy="0.7" rx="149.4" ry="67.9"/>
	<ellipse class="st5" cx="149.5" cy="0.3" rx="149.4" ry="67.9"/>
	<ellipse class="st6" cx="149.5" cy="-19.5" rx="149.4" ry="67.9"/>
	<ellipse class="st7" cx="148.8" cy="-38.6" rx="149.4" ry="67.9"/>
</g>
</svg>
