<svg id="Layer_1" data-name="Layer 1" xmlns="http://www.w3.org/2000/svg" viewBox="0 0 595.28 637.35"><defs><style>.cls-1{fill:#fff;}</style></defs><path class="cls-1" d="M120.69,235.21c3.1-6.15,5.73-12.43,9.25-18.17,7.68-12.53,19.57-19.92,33-24.73,10.43-3.73,20.63-2.31,30.18,3.51,4.74,2.89,9.61,5.58,14.57,8.44,3.16-11.18,7.4-22.17,15-31.47,3.06-3.75,6.76-7,9.93-10.62,1.33-1.54,3-3.69,2.89-5.44-1.53-20.2,5.31-38.71,11.54-57.27C252,84.82,257.12,70.21,263.16,56c9.36-22,38.26-28.77,57.24-14.13a47.56,47.56,0,0,1,15.5,21.69c9.52,25.77,19.31,51.5,24.08,78.72.91,5.2.64,10.6,1.15,15.88.15,1.6.66,3.6,1.75,4.59,11.39,10.41,19,23.18,24,37.62.38,1.08.8,2.15,1.28,3.43,16.07-10.19,32.11-16.21,51.31-8,18.3,7.79,28.34,21.74,35,39.7,3.23-1.49,6.58-3,9.86-4.55a37.1,37.1,0,0,1,30.91-1.28c1.24.49,3.24.83,4.11.19,12.24-9,26.32-8,40.14-7a38.7,38.7,0,0,1,33.89,52.09,41.85,41.85,0,0,1-6.64,11.91,188.07,188.07,0,0,0-26.18,43.41c-9.12,21.24-19,42.18-27.48,63.65-6.17,15.57-11,31.71-15.89,47.75-4.43,14.49-8.06,29.21-12.28,43.76a46.16,46.16,0,0,1-5,11.73c-1.77,2.8-1.65,4.58.29,7,13.85,16.93,13.85,57.89-.47,75.9-11.86,14.92-26.9,23.25-46.09,23.28q-74,.12-148.07,0-80.68,0-161.37,0c-33.34,0-57.78-24.48-58-57.92-.06-11.3.09-22.46,5.19-32.9.06-.13.08-.29.15-.42,2.19-3.82,6.06-7.62,6.12-11.47s-4.3-7.57-5.66-11.7c-2.72-8.26-4.7-16.77-7-25.16-3.57-12.78-6.7-25.71-10.92-38.27-4.46-13.26-9.81-26.23-15.08-39.21-4.2-10.36-8.91-20.51-13.29-30.8s-8-21.28-13.33-31.24a242.86,242.86,0,0,0-21-33.58c-13.11-17.15-14-38.73-.69-55.08,5.84-7.15,13.58-11.66,22.77-12.34,8.8-.65,17.69-.29,26.53,0,2.87.09,6.15.65,8.47,2.18,6.07,4,12,3.46,18.69,1.92,11.47-2.62,22.26.16,31.9,7,.48.34,1,.64,1.48.93C120.72,235.26,120.89,235.23,120.69,235.21Zm202.41-49a32.76,32.76,0,0,1-.17-4.63c.75-6.7,1.73-13.39,2.39-20.1,1.17-11.88-2.55-23.13-5.39-34.33-3-11.67-7.31-23-11.31-34.38-2.39-6.81-5.19-13.47-8.08-20.08-.53-1.22-2.35-1.86-3.58-2.77a17.15,17.15,0,0,0-2.26,3.35c-4.47,12-9.12,23.88-13.15,36-3.64,11-7.72,22-9.47,33.29-1.58,10.21-.4,20.88-.14,31.34.07,2.86,1.52,5.66,1.77,8.55.22,2.47-1.1,4.31-4,3.91-8.68-1.17-14.91,2.52-19.67,9.51-7.59,11.16-9.45,23.54-7.62,36.57,1.8,12.79,6.38,24,18.66,30.62,4.44,2.4,8.14,3.16,12.52,0,2.48-1.79,5.69-2.57,9.13-4.05-.06,2.35.26,4.18-.21,5.78-4.71,16.41-8.24,33.19-21.13,46.09-6.9,6.91-14,11.72-24,11.36a45.85,45.85,0,0,1-14.4-2.68,78.11,78.11,0,0,1-15.3-7.48c-4.25-2.67-7.52-6.84-11.49-10a26.46,26.46,0,0,1-9.29-15.1,12.55,12.55,0,0,1,.69-6.75c1.32-3.59,3.74-6.83,4.77-10.47a62.54,62.54,0,0,0,2.1-13.68c.13-2.54-1-5.18-1.71-7.71-1.89-6.54-2.33-13.93-9.82-17.34-3-1.35-5.9-2.8-9.16-4.36-3,1.69-6.86,3.23-10,5.68-8.29,6.52-9.9,16.56-10.43,25.84-.59,10.6,5.7,19.48,12.19,27.65a3.89,3.89,0,0,0,2,.81c2.23.58,5.32-.74,6.17,2.84.57,2.42,1.8,4.91,1.6,7.27-.8,9.45-2.1,18.85-3.09,28.29a47.84,47.84,0,0,1-10.43,25.44c-4.54,5.59-10.65,9.91-16.13,14.71-.58.51-1.69.41-2.56.59-10.07,2-18.11-2.66-23.75-9.75-8.2-10.32-15-21.75-22.15-32.88-2.71-4.23-1.2-8.65,2.92-11.52a19.38,19.38,0,0,0,4.16-3.82c7.35-9.29,8-19.54,4.82-30.66-1.91-6.73-6.56-10.66-12-14-1.35-.82-4.18-1-5.3-.14-5,3.86-10.94,7.11-12.06,14.34-.23,1.48-1,2.87-2,5.28-2.68-3.83-4.94-6.82-6.93-10C63.72,261.51,54,256.35,40.63,258.16c-2.9.4-4.15,1.57-3.59,4.17.41,1.93,1.09,4.62,2.5,5.36,7.56,3.95,8.89,12.22,12.72,18.49,7.3,12,13.09,24.89,19.29,37.53,4.16,8.49,8.14,17.09,11.86,25.78,3.29,7.69,6.14,15.57,9.13,23.39,5.13,13.45,10.39,26.86,15.24,40.41,2.13,5.94,3.33,12.22,5.07,18.31,3.56,12.43,7.68,24.73,10.66,37.3,2.78,11.78,2.37,10.2,12.93,10.23q116.7.22,233.39.23c31.6,0,63.2-.28,94.8-.35,3.84,0,5.67-1.17,6.42-5.31a203.83,203.83,0,0,1,5.61-23.09c4-13.07,8.44-26,12.71-39,3.45-10.47,6.64-21,10.45-31.39,3.65-9.88,7.74-19.61,12-29.26q8.05-18.3,16.71-36.31c4.25-8.84,8.5-17.74,13.61-26.08s11.39-16.1,17-24.22a4.86,4.86,0,0,0,.53-4.07,4.43,4.43,0,0,0-3.46-2.07c-6.54.25-12.94-1.17-19.45,3-5.58,3.61-10.66,7-14.08,12.77-1.19,2-2.8,3.69-4.9,6.42-1.82-3.88-3.11-6.92-4.64-9.84-4.34-8.27-17.83-9.33-22.82-1.51-8.4,13.18-7.72,27.94,1.39,40a7.67,7.67,0,0,0,3.44,2.51c5.47,1.82,6.6,5.15,3.63,10-2.77,4.48-5.11,9.23-7.63,13.87-1.12,2.07-1.78,4.63-3.41,6.14-7.37,6.82-12.25,15.89-21.07,21.53a17.8,17.8,0,0,1-17.54,1.41c-9-3.91-15.62-11-19.82-20.11-8.08-17.52-9.2-36.06-8.05-54.91.05-.92,1.67-2.33,2.74-2.51a18.15,18.15,0,0,0,15.25-14.87,28.72,28.72,0,0,1,1.28-5.57c3.07-7.47,2-14.73-.84-21.93s-5.92-13.71-14.62-15.52c-2.35-.48-4.13-2.33-6.8-.48-2,1.37-5.25,1.35-6.68,3-5.34,6.23-9.12,13.48-10,21.74-1,9.48,1.15,18.34,5.85,26.75,1.25,2.23,1.59,6,.53,8.25a55.7,55.7,0,0,1-8.46,12.33c-3,3.44-7,6-10.23,9.3-6.92,6.94-15.75,10.26-24.92,11.83-5.73,1-12.29,1.85-17.69-2.57-5-4.12-11.14-7.36-15.1-12.31a93.38,93.38,0,0,1-12.41-21.17c-3.5-8.12-6.68-16.69-4.59-26.4,1.41.61,2.6,1.1,3.78,1.62,2.92,1.28,5.78,3.46,8.78,3.68,5.42.41,9.7-3,13.86-6.14,4.65-3.54,6.66-8.8,8.92-13.81,1.72-3.84,3.44-7.9,4-12,1.85-14.15-.81-27.28-10.18-38.58-3.6-4.35-7.54-7.81-13.72-7.46A50.45,50.45,0,0,1,323.1,186.18ZM466,518.83l0-1c-4.68-.86-9.35-2.45-14-2.47-52.67-.18-105.35-.13-158-.13q-75,0-150.08,0c-9.47,0-16.66,4.1-20,12.64-2,5.14-1.8,11.27-1.86,17-.16,14.49,8.25,22.74,22.81,22.76q63.79.07,127.59.07,89.94,0,179.88,0c6,0,11.38-1.43,15.79-5.7,8.48-8.23,9.69-29.32,2.16-38.71C469,521.66,467.41,520.3,466,518.83Z"/></svg>