<svg id="Layer_1" data-name="Layer 1" xmlns="http://www.w3.org/2000/svg" viewBox="0 0 595.28 637.35"><defs><style>.cls-1{fill:#fff;}</style></defs><path class="cls-1" d="M306.74,131.8h33.1v64a54,54,0,0,1-3,18,38.76,38.76,0,0,1-9.31,14.79,37.08,37.08,0,0,1-13.29,8.89Q304.61,241,291.06,241a146.61,146.61,0,0,1-17.1-1.1,44.72,44.72,0,0,1-15.49-4.35,38.93,38.93,0,0,1-11.39-9.26A34.09,34.09,0,0,1,240,213.93a64.09,64.09,0,0,1-3.07-18.15v-64H270v65.5q0,8.77,4.87,13.72T288.43,216q8.56,0,13.44-4.87t4.87-13.79Z"/><path class="cls-1" d="M111.13,268.8h33.25V376.18H111.13Z"/><path class="cls-1" d="M170.51,268.8h31l40.43,59.41V268.8h31.27V376.18H241.92l-40.21-59v59h-31.2Z"/><path class="cls-1" d="M181.3,469.23,210.37,478a53.69,53.69,0,0,1-9.22,20.44,40.21,40.21,0,0,1-15.64,12.37Q176.17,515,161.74,515q-17.51,0-28.6-5.09T114,492q-8.07-12.81-8.06-32.8,0-26.64,14.17-41T160.2,404q20.3,0,31.9,8.21t17.25,25.19l-29.3,6.52a25.16,25.16,0,0,0-3.22-7.18,19.19,19.19,0,0,0-6.81-5.86,19.68,19.68,0,0,0-9-2.05q-11.28,0-17.29,9.07-4.54,6.74-4.54,21.14,0,17.87,5.42,24.48t15.24,6.62q9.51,0,14.39-5.35T181.3,469.23Z"/><path class="cls-1" d="M224.41,459.56q0-26.3,14.65-40.94T279.86,404q26.81,0,41.31,14.39t14.5,40.32q0,18.82-6.34,30.88A45.19,45.19,0,0,1,311,508.31q-12,6.69-29.85,6.7-18.17,0-30.06-5.79t-19.3-18.31Q224.42,478.39,224.41,459.56Zm33.18.15q0,16.26,6,23.36t16.45,7.11q10.68,0,16.55-7t5.86-25q0-15.17-6.12-22.16t-16.59-7q-10,0-16.11,7.11T257.59,459.71Z"/><path class="cls-1" d="M338.65,405.8h34.68l24.17,77.27,23.85-77.27H455L415.16,513.18h-36Z"/><path class="cls-1" d="M82.38,120.64c-.14-.94-.33-1.85-.39-2.77a8.33,8.33,0,0,1,1.77-5.39,4.64,4.64,0,0,1,3.67-2c.76,0,1.52-.13,2.31-.2a11.67,11.67,0,0,1-.8-4.73c0-.66.22-1.31.28-2a1.28,1.28,0,0,0-.1-.84c-1.76-2.16-2.45-4.78-3.21-7.36-.61-2-1.18-4.09-1.62-6.16a5.18,5.18,0,0,1,5.33-6.1,6.55,6.55,0,0,1,3.46,1.22,62.41,62.41,0,0,1,8.91,7c.51.51.91,1.14,1.38,1.7a1.15,1.15,0,0,0,.56.38,12.25,12.25,0,0,1,5.67,2.34L110,96c1-2.41,2.33-4.35,5.14-5a8.75,8.75,0,0,1,7.07,1.71c.25-.42.51-.85.75-1.29a5.12,5.12,0,0,1,3.38-2.58c.18,0,.43-.16.48-.3.66-2,2.33-3,4-4a5.32,5.32,0,0,1,7.92,3.2,5.54,5.54,0,0,1,.19,1.86,25.75,25.75,0,0,0,.48,7c.65,3.11,1.19,6.24,1.92,9.33.54,2.24,1.27,4.43,2,6.63.64,2,1.39,3.92,2.06,5.89a6.38,6.38,0,0,1,.37,1.71.68.68,0,0,0,.58.76c2.89.82,6.12,5.43,5.93,8.58a7.8,7.8,0,0,1-3.36,6.26l-16.66,11.67L114,160.21a7.74,7.74,0,0,1-11.09-2,9.84,9.84,0,0,1-2-4.12s0,0,0,0c-.05-.61.08-1.34-.22-1.78s-1.08-.51-1.55-.87c-1-.71-1.86-1.52-2.78-2.28C95,148,93.6,146.8,92.13,145.72s-3.17-2.18-4.78-3.23c-1.29-.83-2.62-1.61-3.93-2.42s-2.58-1.76-4-2.46a32.91,32.91,0,0,0-5-2.13A5.94,5.94,0,0,1,70,129.34a4.4,4.4,0,0,1,1.59-3.19c.94-.76,2-1.42,3-2.09a2.37,2.37,0,0,1,1.12-.42A3,3,0,0,0,78,122.38a5.29,5.29,0,0,1,4.14-1.72h.24S82.41,120.63,82.38,120.64ZM101.3,99.17a4.78,4.78,0,0,1-.38-.51c-.45-.81-.86-1.64-1.32-2.45a13.7,13.7,0,0,0-3.31-3.44c-1.25-1.08-2.64-2-4-3-.81-.58-1.65-1.11-2.5-1.62-.15-.1-.41,0-.62,0a2.52,2.52,0,0,0,0,.55c.44,1.7.86,3.41,1.36,5.09a28.16,28.16,0,0,0,1.56,4.5,24,24,0,0,0,2.45,3.53c.23.32.62.52.87.83a.45.45,0,0,1-.14.76A2.63,2.63,0,0,0,93.84,106a6.88,6.88,0,0,0,2,4.71,5.16,5.16,0,0,0,4.51,2,1.44,1.44,0,0,0,1.41-1,7,7,0,0,1,.71-1.18,3.21,3.21,0,0,1,.43.67c.76,2.22,1.69,4.39,1.26,6.85a4.34,4.34,0,0,1-1.81,3.18,6.53,6.53,0,0,1-1.84.83,10.88,10.88,0,0,1-2.31.36,16.5,16.5,0,0,1-2.08-.22,3.63,3.63,0,0,1-2.24-1,1.71,1.71,0,0,1-.45-.81c-.13-.51-.12-1.06-.29-1.56a9.26,9.26,0,0,0-.84-1.7,3.29,3.29,0,0,0-.8-.73c-.73-.59-1.36-1.39-2.47-1.18l-1.38.23a9.48,9.48,0,0,0-.67,1.43,4.54,4.54,0,0,0,.86,3.73,5.82,5.82,0,0,0,3.55,2.15.51.51,0,0,0,.28-.07c.3-.11.55-.5.92-.16a3.62,3.62,0,0,1,.76.69c.65,1.13,1.25,2.29,1.88,3.43a6.56,6.56,0,0,1,.83,3.68,17.69,17.69,0,0,1-.66,2.93c0,.1-.15.18-.24.27a3.23,3.23,0,0,1-3.44.77,52.11,52.11,0,0,1-5.08-2,1.11,1.11,0,0,1-.58-1.53,2.78,2.78,0,0,0,.16-.76,4.4,4.4,0,0,0-1.87-3.83,3.31,3.31,0,0,0-2.45-.62.79.79,0,0,0-.61.4,3.26,3.26,0,0,0-.23,2.56,5.1,5.1,0,0,1,.2.75c-.61-.22-1.1-.38-1.57-.57a3.92,3.92,0,0,0-4.53.74c-.3.28-.34.51-.08.76s.49.43.71.4c1.16-.15,2,.68,2.89,1.08,1.76.77,3.43,1.77,5.12,2.71,1.14.62,2.27,1.28,3.37,2s1.92,1.27,2.87,1.92c1.64,1.11,3.29,2.2,4.9,3.34.71.5,1.34,1.12,2,1.66,1.38,1.12,2.81,2.18,4.14,3.36s1.07,1,2.26.14l26.29-18.37c3.56-2.49,7.09-5,10.64-7.51a.76.76,0,0,0,.31-1.11,26.22,26.22,0,0,1-1.19-3c-.58-1.78-1.1-3.59-1.64-5.39-.44-1.45-.91-2.89-1.3-4.36s-.68-2.81-1-4.23q-.53-2.7-1-5.41a38.57,38.57,0,0,1-.52-4c-.09-1.35,0-2.71,0-4.06a.65.65,0,0,0-.26-.5.6.6,0,0,0-.55,0c-.72.54-1.55.89-1.95,1.87a5.44,5.44,0,0,0-.58,2.55,9.43,9.43,0,0,1-.05,1.11c-.51-.29-.89-.54-1.29-.74a1.9,1.9,0,0,0-2.69,1.62,4.63,4.63,0,0,0,3.31,4.4,1.14,1.14,0,0,0,.58,0c.76-.23,1.15.06,1.2.84s.15,1.44.23,2.16a2.91,2.91,0,0,1,.1,1c-.29,1.35-.12,2.75-.67,4.08a2.45,2.45,0,0,1-1.87,1.54,5.3,5.3,0,0,1-3.81-.7,15.38,15.38,0,0,1-5.24-5.54.58.58,0,0,1,.11-.5,2.49,2.49,0,0,0,.55-2.88,3.27,3.27,0,0,1-.29-.73,3.92,3.92,0,0,0-1.83-2.4,2.81,2.81,0,0,0-2.87-.59c-.3.13-.65.06-.8.48s-.48.56-.51.87a5.48,5.48,0,0,0,.58,3.23,6.07,6.07,0,0,0,2.77,2.55,1.4,1.4,0,0,1,.71.89,7.81,7.81,0,0,1,0,2.05c-.07.63-.31,1.23-.42,1.86a6.13,6.13,0,0,1-1.87,3.29,2.88,2.88,0,0,1-2.2,1.11,13.07,13.07,0,0,1-2.67-.2,12.83,12.83,0,0,1-3.06-1.4,5.86,5.86,0,0,1-2.6-2.61l.55-.12a4.28,4.28,0,0,0,1.28-.28,2.9,2.9,0,0,0,1.08-1.78,4.44,4.44,0,0,0-.09-2.26,5.51,5.51,0,0,0-.5-1.66,6.61,6.61,0,0,0-4.18-3.55,2.22,2.22,0,0,0-2.13.25A7.72,7.72,0,0,1,101.3,99.17Zm42.3,26.18-.07-.11a10.72,10.72,0,0,0-1.78.83q-8.91,6.19-17.8,12.44-8.45,5.91-16.89,11.82a2.71,2.71,0,0,0-1.25,3,6.62,6.62,0,0,0,1.13,2.06,2.83,2.83,0,0,0,4.36.76l14.37-10.05,20.24-14.17a3,3,0,0,0,1.33-1.89,4.69,4.69,0,0,0-2.81-4.53A7.6,7.6,0,0,0,143.6,125.35Z"/><path class="cls-1" d="M202.39,144.37Q187.89,130,161.08,130a77.4,77.4,0,0,0-14.44,1.29,3.55,3.55,0,0,1-.73.66L125.67,146.1l-13.4,9.37q-6.61,12.42-6.63,30.09,0,18.83,7.39,31.35t19.3,18.31Q144.24,241,162.4,241q17.86,0,29.85-6.7a45.25,45.25,0,0,0,18.31-18.75q6.33-12,6.33-30.87Q216.89,158.76,202.39,144.37Zm-24.54,64.85q-5.85,7-16.55,7-10.4,0-16.44-7.11t-6-23.36q0-16.41,6.08-23.51T161,155.1q10.47,0,16.59,7t6.11,22.16Q183.71,202.27,177.85,209.22Z"/><path class="cls-1" d="M419.6,132H394.89a2,2,0,0,1-2-2v-4.72c0-11.77,3.33-13,4.76-13h19.19c1.43,0,4.76,1.27,4.76,13V130A2,2,0,0,1,419.6,132Zm-22.71-4H417.6v-2.72c0-4.86-.79-8-1.33-9h-18c-.54,1-1.33,4.18-1.33,9Z"/><path class="cls-1" d="M417.15,116.22H397.34a2,2,0,0,1-2-2V109.5c0-8.65,1.41-13,4.21-13h15.39c2.8,0,4.21,4.38,4.21,13v4.72A2,2,0,0,1,417.15,116.22Zm-17.81-4h15.81V109.5a30.62,30.62,0,0,0-1-9H400.37a30.62,30.62,0,0,0-1,9Z"/><path class="cls-1" d="M414.71,100.47H399.78a2,2,0,0,1-2-2V93.75c0-13,2.47-13,3.67-13H413c1.2,0,3.67,0,3.67,13v4.72A2,2,0,0,1,414.71,100.47Zm-12.93-4h10.93V93.75a41,41,0,0,0-.76-9h-9.41a41,41,0,0,0-.76,9Z"/><polygon class="cls-1" points="409.25 136.8 409.25 259.76 424.63 239.18 419.24 139.84 409.25 136.8"/><polygon class="cls-1" points="405.24 136.8 405.24 259.76 389.86 239.18 395.25 139.84 405.24 136.8"/><path class="cls-1" d="M436.47,136.57,407.24,127,378,136.57s-6.07,1.54-5,5.76c.59,2.27,3.66,3.13,7.1,3.13,4.42,0,9.46-1.41,10.71-3.07,1.77-2.34-1.76-4.85-1.76-4.85L407.24,132l18.15,5.53s-3.53,2.51-1.76,4.85c1.25,1.66,6.29,3.07,10.71,3.07,3.44,0,6.51-.86,7.1-3.13C442.54,138.11,436.47,136.57,436.47,136.57Z"/><path class="cls-1" d="M434.77,131.8l2.84.93c1.1.3,5,1.57,6.92,4.81a7.44,7.44,0,0,1,.78,5.79c-1.43,5.54-8.15,6.13-11,6.13a26.84,26.84,0,0,1-10.7-2.22l.6,11.08h33V131.8Z"/><path class="cls-1" d="M379.69,131.8l-2.83.93c-1.1.3-5,1.57-6.92,4.81a7.49,7.49,0,0,0-.79,5.79c1.44,5.54,8.16,6.13,11,6.13a26.76,26.76,0,0,0,10.69-2.22l-.6,11.08h-33V131.8Z"/></svg>